<?xml version="1.0" encoding="UTF-8"?>
<svg id="Layer_1" xmlns="http://www.w3.org/2000/svg" version="1.1" viewBox="0 0 73 73">
  <!-- Generator: Adobe Illustrator 29.0.0, SVG Export Plug-In . SVG Version: 2.1.0 Build 186)  -->
  <defs>
    <style>
      .st0 {
        fill: #008adf;
      }

      .st1 {
        fill: #00ab5e;
      }

      .st2 {
        fill: #0065a3;
      }

      .st3 {
        fill: #ffd400;
      }

      .st4 {
        fill: #ff4b00;
      }

      .st5 {
        fill: #ff9100;
      }

      .st6 {
        fill: #ff9f04;
      }

      .st7 {
        fill: #ff8398;
      }

      .st8 {
        fill: #54e360;
      }

      .st9 {
        fill: #e80048;
      }

      .st10 {
        fill: #ff4949;
      }

      .st11 {
        fill: #005183;
      }
    </style>
  </defs>
  <path class="st7" d="M4.9,54.8c1.6,2.7,3.5,5.3,5.8,7.6,6.9,6.9,16.1,10.7,25.8,10.7s18.9-3.8,25.8-10.7,4.2-4.8,5.8-7.6c3.2-5.5,4.9-11.7,4.9-18.3s-1.7-12.8-4.9-18.3c-1.6-2.7-3.5-5.3-5.8-7.6C55.4,3.8,46.2,0,36.5,0S17.6,3.8,10.7,10.7c-2.3,2.3-4.2,4.8-5.8,7.6C1.7,23.7,0,30,0,36.5s1.7,12.8,4.9,18.3ZM27.2,36.5c0-1.7.5-3.3,1.3-4.7,1.6-2.8,4.6-4.7,8.1-4.7s6.4,1.9,8.1,4.7c.8,1.4,1.3,3,1.3,4.7s-.5,3.3-1.3,4.7c-1.6,2.8-4.6,4.7-8.1,4.7s-6.4-1.9-8.1-4.7c-.8-1.4-1.3-3-1.3-4.7Z"/>
  <path class="st8" d="M36.5,59.4v13.6c9.7,0,18.9-3.8,25.8-10.7s4.2-4.8,5.8-7.6l-11.8-6.8c-4,6.8-11.4,11.5-19.8,11.5Z"/>
  <path class="st0" d="M59.4,36.5c0,4.2-1.1,8.1-3.1,11.5l11.8,6.8c3.2-5.5,4.9-11.7,4.9-18.3s-1.7-12.8-4.9-18.3l-11.8,6.8c1.9,3.4,3.1,7.3,3.1,11.5Z"/>
  <path class="st3" d="M16.7,48l-11.8,6.8c1.6,2.7,3.5,5.3,5.8,7.6,6.9,6.9,16.1,10.7,25.8,10.7v-13.6c-8.5,0-15.9-4.6-19.8-11.5Z"/>
  <path class="st2" d="M56.3,25l11.8-6.8c-1.6-2.7-3.5-5.3-5.8-7.6C55.4,3.8,46.2,0,36.5,0v13.6c8.5,0,15.9,4.6,19.8,11.5Z"/>
  <path class="st5" d="M4.9,54.8l11.8-6.8c-1.9-3.4-3.1-7.3-3.1-11.5s1.1-8.1,3.1-11.5l-11.8-6.8C1.7,23.7,0,30,0,36.5s1.7,12.8,4.9,18.3Z"/>
  <path class="st10" d="M36.5,13.6V0c-9.7,0-18.9,3.8-25.8,10.7-2.3,2.3-4.2,4.8-5.8,7.6l11.8,6.8c4-6.8,11.4-11.5,19.8-11.5Z"/>
  <path class="st2" d="M45.8,36.5c0,1.7-.5,3.3-1.3,4.7l11.8,6.8c1.9-3.4,3.1-7.3,3.1-11.5s-1.1-8.1-3.1-11.5l-11.8,6.8c.8,1.4,1.3,3,1.3,4.7Z"/>
  <path class="st11" d="M44.6,31.8l11.8-6.8c-4-6.8-11.4-11.5-19.8-11.5v13.6c3.4,0,6.4,1.9,8.1,4.7Z"/>
  <path class="st1" d="M36.5,45.8v13.6c8.5,0,15.9-4.6,19.8-11.5l-11.8-6.8c-1.6,2.8-4.6,4.7-8.1,4.7Z"/>
  <path class="st6" d="M36.5,59.4v-13.6c-3.4,0-6.4-1.9-8.1-4.7l-11.8,6.8c4,6.8,11.4,11.5,19.8,11.5Z"/>
  <path class="st4" d="M27.2,36.5c0-1.7.5-3.3,1.3-4.7l-11.8-6.8c-1.9,3.4-3.1,7.3-3.1,11.5s1.1,8.1,3.1,11.5l11.8-6.8c-.8-1.4-1.3-3-1.3-4.7Z"/>
  <path class="st9" d="M36.5,27.2v-13.6c-8.5,0-15.9,4.6-19.8,11.5l11.8,6.8c1.6-2.8,4.6-4.7,8.1-4.7Z"/>
</svg>