<svg width="824" height="263" viewBox="0 0 824 263" fill="none" xmlns="http://www.w3.org/2000/svg">
<path d="M5.04432 261.031H1.30762L26.3148 59.8234H35.8003L96.1625 245.796L156.237 59.8234H165.723L190.73 261.031H166.873L147.039 100.065L95.0128 261.031H76.9041L24.3027 102.077L5.04432 261.031Z" fill="#79716D"/>
<path d="M508.552 59.8234C512.193 63.4643 514.013 68.1592 514.013 73.9079C514.013 78.6986 512.96 83.585 510.852 88.5673L459.4 192.908V261.031H435.543V199.231L378.055 59.8234H402.487L457.388 189.458L507.402 88.5673C509.51 83.7767 510.564 78.7944 510.564 73.6205C510.564 68.4466 509.127 64.4225 506.253 61.5481L508.552 59.8234Z" fill="#79716D"/>
<path d="M693.212 62.6978V59.8234H810.487V62.6978L709.021 258.156H795.54C801.097 258.156 806.175 257.198 810.774 255.282C815.373 253.366 818.439 250.587 819.972 246.946L822.272 248.096C821.888 249.054 821.218 250.3 820.26 251.833C819.493 253.174 816.906 255.09 812.499 257.581C808.091 259.881 802.726 261.031 796.402 261.031H685.738V258.156L786.629 62.6978H693.212Z" fill="#79716D"/>
<path d="M508.943 261.031H505.494L591.438 59.8234L594.6 58.3862L667.034 261.031H642.602L582.527 90.8668L508.943 261.031Z" fill="#79716D"/>
<path d="M222.907 261.031H219.458L305.402 59.8234L308.564 58.3862L380.999 261.031H356.567L296.492 90.8668L222.907 261.031Z" fill="#79716D"/>
<path fill-rule="evenodd" clip-rule="evenodd" d="M6.06854 262.186H0L25.2944 58.6681H36.6404L96.1602 242.046L155.397 58.6681H166.744L192.038 262.186H165.851L146.532 105.393L95.8539 262.186H76.0697L24.8289 107.344L6.06854 262.186ZM5.04464 261.031H1.30793L26.3151 59.8235H35.8006L96.1628 245.797L156.238 59.8235H165.723L190.73 261.031H166.873L147.04 100.065L95.0131 261.031H76.9044L24.3031 102.077L5.04464 261.031ZM223.667 262.186H217.708L304.516 58.9572L309.23 56.8147L382.639 262.186H355.749L296.383 94.0296L223.667 262.186ZM222.908 261.031H219.458L305.403 59.8235L308.565 58.3863L380.999 261.031H356.567L296.492 90.8669L222.908 261.031ZM508.661 58.2979L509.369 59.0065C513.253 62.8902 515.169 67.8918 515.169 73.908C515.169 78.8721 514.076 83.9112 511.916 89.0176L511.903 89.0484L460.556 193.177V262.186H434.388V199.46L376.329 58.6681H403.253L457.471 186.691L506.356 88.0782C508.393 83.4398 509.409 78.6238 509.409 73.6206C509.409 68.6653 508.039 64.9678 505.436 62.3652L504.494 61.4231L508.661 58.2979ZM507.403 88.5674L457.388 189.458L402.487 59.8235H378.055L435.543 199.231V261.031H459.4V192.908L510.852 88.5674C512.96 83.5851 514.014 78.6987 514.014 73.908C514.014 68.1592 512.193 63.4644 508.552 59.8235L506.253 61.5481C506.528 61.8229 506.789 62.1081 507.038 62.4038C509.389 65.2023 510.565 68.9412 510.565 73.6206C510.565 78.7945 509.511 83.7768 507.403 88.5674ZM509.702 262.186H503.744L590.552 58.9572L595.265 56.8147L668.675 262.186H641.785L582.419 94.0295L509.702 262.186ZM508.943 261.031H505.494L591.438 59.8235L594.6 58.3863L667.035 261.031H642.602L582.528 90.8669L508.943 261.031ZM692.056 63.8533V58.6681H811.642V62.9799L710.923 257.001H795.54C800.962 257.001 805.887 256.067 810.33 254.215C814.726 252.384 817.521 249.791 818.908 246.498L819.386 245.361L823.74 247.538L823.345 248.525C822.926 249.573 822.217 250.88 821.251 252.427C820.737 253.313 819.735 254.24 818.433 255.204C817.086 256.202 815.292 257.33 813.068 258.587L813.051 258.597L813.034 258.606C808.422 261.012 802.863 262.186 796.402 262.186H684.583V257.876L784.733 63.8533H692.056ZM786.629 62.6979L685.738 258.156V261.031H796.402C802.726 261.031 808.092 259.881 812.499 257.582C816.906 255.09 819.493 253.174 820.26 251.833C821.218 250.3 821.889 249.054 822.272 248.096L819.972 246.946C819.822 247.303 819.658 247.651 819.478 247.991C817.824 251.123 814.923 253.553 810.774 255.282C806.175 257.198 801.097 258.156 795.54 258.156H709.021L810.487 62.6979V59.8235H693.212V62.6979H786.629Z" fill="#79716D"/>
<path d="M398.063 17.467L415.53 0.000234244L432.997 17.467L415.53 34.9338L398.063 17.467Z" fill="#79716D"/>
<path d="M462.076 17.467L479.543 0.000234244L497.01 17.467L479.543 34.9338L462.076 17.467Z" fill="#79716D"/>
</svg>
