<svg width="536" height="171" viewBox="0 0 536 171" fill="none" xmlns="http://www.w3.org/2000/svg">
<path d="M3.69602 169.436H1.27051L17.5028 38.8316H23.6599L62.8412 159.547L101.836 38.8316H107.993L124.225 169.436H108.739L95.8655 64.9525L62.0949 169.436H50.3405L16.1967 66.2585L3.69602 169.436Z" fill="black"/>
<path d="M330.525 38.8316C332.888 41.1949 334.07 44.2423 334.07 47.9739C334.07 51.0835 333.386 54.2553 332.018 57.4894L298.62 125.217V169.436H283.134V129.322L245.819 38.8316H261.678L297.314 122.978L329.779 57.4894C331.147 54.3797 331.831 51.1457 331.831 47.7873C331.831 44.4289 330.898 41.8168 329.032 39.951L330.525 38.8316Z" fill="black"/>
<path d="M450.388 40.6973V38.8316H526.512V40.6973L460.65 167.57H516.81C520.417 167.57 523.713 166.948 526.699 165.705C529.684 164.461 531.674 162.657 532.669 160.294L534.162 161.04C533.913 161.662 533.478 162.471 532.856 163.466C532.358 164.336 530.679 165.58 527.818 167.197C524.957 168.69 521.474 169.436 517.37 169.436H445.537V167.57L511.026 40.6973H450.388Z" fill="black"/>
<path d="M330.779 169.436H328.54L384.327 38.8316L386.379 37.8987L433.397 169.436H417.537L378.543 58.982L330.779 169.436Z" fill="black"/>
<path d="M145.112 169.436H142.873L198.66 38.8316L200.712 37.8987L247.73 169.436H231.871L192.876 58.982L145.112 169.436Z" fill="black"/>
<path fill-rule="evenodd" clip-rule="evenodd" d="M4.36099 170.186H0.421875L16.8406 38.0817H24.2053L62.8399 157.113L101.29 38.0817H108.656L125.075 170.186H108.076L95.5363 68.4109L62.6411 170.186H49.799L16.5384 69.6772L4.36099 170.186ZM3.69637 169.436H1.27086L17.5031 38.8317H23.6602L62.8416 159.548L101.836 38.8317H107.993L124.226 169.436H108.74L95.8659 64.9526L62.0953 169.436H50.3408L16.1971 66.2586L3.69637 169.436ZM145.605 170.186H141.737L198.085 38.2694L201.144 36.8787L248.795 170.186H231.34L192.806 61.035L145.605 170.186ZM145.112 169.436H142.873L198.66 38.8317L200.712 37.8988L247.73 169.436H231.871L192.876 58.9821L145.112 169.436ZM330.596 37.8414L331.056 38.3014C333.577 40.8223 334.82 44.0689 334.82 47.974C334.82 51.1962 334.111 54.4671 332.709 57.7817L332.7 57.8017L299.371 125.392V170.186H282.385V129.471L244.699 38.0817H262.175L297.368 121.182L329.099 57.1719C330.422 54.1611 331.082 51.035 331.082 47.7874C331.082 44.571 330.192 42.1709 328.503 40.4815L327.891 39.87L330.596 37.8414ZM329.779 57.4895L297.315 122.978L261.678 38.8317H245.819L283.135 129.322V169.436H298.621V125.217L332.018 57.4895C333.386 54.2555 334.07 51.0836 334.07 47.974C334.07 44.2424 332.889 41.195 330.525 38.8317L329.033 39.9512C329.211 40.1295 329.381 40.3146 329.542 40.5066C331.068 42.3231 331.832 44.75 331.832 47.7874C331.832 51.1458 331.147 54.3798 329.779 57.4895ZM331.272 170.186H327.404L383.752 38.2694L386.811 36.8787L434.461 170.186H417.007L378.472 61.035L331.272 170.186ZM330.779 169.436H328.54L384.327 38.8317L386.379 37.8988L433.397 169.436H417.538L378.543 58.9821L330.779 169.436ZM449.639 41.4475V38.0817H527.262V40.8805L461.885 166.82H516.81C520.33 166.82 523.527 166.214 526.411 165.012C529.264 163.823 531.078 162.14 531.978 160.003L532.289 159.265L535.115 160.678L534.858 161.319C534.586 161.999 534.126 162.847 533.499 163.851C533.166 164.427 532.515 165.028 531.67 165.654C530.796 166.302 529.631 167.034 528.188 167.85L528.177 167.856L528.165 167.862C525.172 169.424 521.564 170.186 517.37 170.186H444.788V167.388L509.795 41.4475H449.639ZM511.026 40.6975L445.538 167.57V169.436H517.37C521.475 169.436 524.958 168.69 527.818 167.197C530.679 165.58 532.359 164.336 532.856 163.466C533.478 162.471 533.913 161.662 534.162 161.04L532.669 160.294C532.572 160.525 532.465 160.751 532.349 160.972C531.275 163.005 529.392 164.583 526.699 165.705C523.714 166.949 520.418 167.57 516.81 167.57H460.65L526.512 40.6975V38.8317H450.389V40.6975H511.026Z" fill="black"/>
<path d="M258.807 11.3379L270.144 0.000111945L281.482 11.3379L270.144 22.6757L258.807 11.3379Z" fill="black"/>
<path d="M300.357 11.3379L311.695 0.000111945L323.033 11.3379L311.695 22.6757L300.357 11.3379Z" fill="black"/>
</svg>
