<svg width="540" height="218" viewBox="0 0 540 218" fill="none" xmlns="http://www.w3.org/2000/svg">
<path d="M20.5156 207.053H24.6406C24.4258 209.029 23.86 210.798 22.9434 212.359C22.0267 213.921 20.7305 215.16 19.0547 216.076C17.3789 216.979 15.2878 217.43 12.7812 217.43C10.9479 217.43 9.2793 217.086 7.77539 216.399C6.28581 215.711 5.00391 214.737 3.92969 213.477C2.85547 212.202 2.02474 210.677 1.4375 208.901C0.864583 207.11 0.578125 205.119 0.578125 202.928V199.813C0.578125 197.621 0.864583 195.637 1.4375 193.861C2.02474 192.071 2.86263 190.539 3.95117 189.264C5.05404 187.989 6.37891 187.008 7.92578 186.32C9.47266 185.633 11.2129 185.289 13.1465 185.289C15.5098 185.289 17.5078 185.733 19.1406 186.621C20.7734 187.509 22.041 188.741 22.9434 190.317C23.86 191.878 24.4258 193.69 24.6406 195.752H20.5156C20.3151 194.291 19.9427 193.038 19.3984 191.992C18.8542 190.932 18.0807 190.116 17.0781 189.543C16.0755 188.97 14.765 188.684 13.1465 188.684C11.7572 188.684 10.5326 188.949 9.47266 189.479C8.42708 190.009 7.54622 190.761 6.83008 191.734C6.12826 192.708 5.59831 193.876 5.24023 195.236C4.88216 196.597 4.70312 198.108 4.70312 199.77V202.928C4.70312 204.46 4.86068 205.9 5.17578 207.246C5.50521 208.593 5.99935 209.774 6.6582 210.791C7.31706 211.808 8.15495 212.61 9.17188 213.197C10.1888 213.77 11.3919 214.057 12.7812 214.057C14.543 214.057 15.9466 213.777 16.9922 213.219C18.0378 212.66 18.8255 211.858 19.3555 210.813C19.8997 209.767 20.2865 208.514 20.5156 207.053Z" fill="black"/>
<path d="M86.055 200.371V202.348C86.055 204.697 85.7614 206.802 85.1741 208.664C84.5869 210.526 83.7418 212.109 82.639 213.412C81.5361 214.716 80.2113 215.711 78.6644 216.399C77.1318 217.086 75.4131 217.43 73.5081 217.43C71.6605 217.43 69.9632 217.086 68.4163 216.399C66.8838 215.711 65.5517 214.716 64.4202 213.412C63.303 212.109 62.4365 210.526 61.8206 208.664C61.2047 206.802 60.8968 204.697 60.8968 202.348V200.371C60.8968 198.022 61.1976 195.924 61.7991 194.076C62.415 192.214 63.2816 190.632 64.3988 189.328C65.5159 188.011 66.8408 187.008 68.3734 186.32C69.9202 185.633 71.6175 185.289 73.4652 185.289C75.3701 185.289 77.0889 185.633 78.6214 186.32C80.1683 187.008 81.4932 188.011 82.596 189.328C83.7132 190.632 84.5654 192.214 85.1527 194.076C85.7542 195.924 86.055 198.022 86.055 200.371ZM81.9515 202.348V200.328C81.9515 198.466 81.7581 196.819 81.3714 195.387C80.999 193.955 80.4476 192.751 79.7171 191.777C78.9866 190.804 78.0915 190.066 77.0316 189.565C75.986 189.063 74.7972 188.813 73.4652 188.813C72.1761 188.813 71.0088 189.063 69.9632 189.565C68.932 190.066 68.0439 190.804 67.2991 191.777C66.5687 192.751 66.0029 193.955 65.6019 195.387C65.2008 196.819 65.0003 198.466 65.0003 200.328V202.348C65.0003 204.224 65.2008 205.886 65.6019 207.332C66.0029 208.764 66.5758 209.975 67.3206 210.963C68.0797 211.937 68.9749 212.675 70.0062 213.176C71.0517 213.677 72.2191 213.928 73.5081 213.928C74.8545 213.928 76.0504 213.677 77.096 213.176C78.1416 212.675 79.0224 211.937 79.7386 210.963C80.4691 209.975 81.0205 208.764 81.3929 207.332C81.7653 205.886 81.9515 204.224 81.9515 202.348Z" fill="black"/>
<path d="M142.915 213.627V217H127.274V213.627H142.915ZM128.09 185.719V217H123.944V185.719H128.09Z" fill="black"/>
<path d="M198.313 213.627V217H182.673V213.627H198.313ZM183.489 185.719V217H179.343V185.719H183.489Z" fill="black"/>
<path d="M254.615 213.627V217H238.05V213.627H254.615ZM238.888 185.719V217H234.741V185.719H238.888ZM252.423 199.168V202.541H238.05V199.168H252.423ZM254.4 185.719V189.113H238.05V185.719H254.4Z" fill="black"/>
<path d="M310.314 207.053H314.439C314.224 209.029 313.658 210.798 312.742 212.359C311.825 213.921 310.529 215.16 308.853 216.076C307.177 216.979 305.086 217.43 302.58 217.43C300.746 217.43 299.078 217.086 297.574 216.399C296.084 215.711 294.802 214.737 293.728 213.477C292.654 212.202 291.823 210.677 291.236 208.901C290.663 207.11 290.377 205.119 290.377 202.928V199.813C290.377 197.621 290.663 195.637 291.236 193.861C291.823 192.071 292.661 190.539 293.75 189.264C294.852 187.989 296.177 187.008 297.724 186.32C299.271 185.633 301.011 185.289 302.945 185.289C305.308 185.289 307.306 185.733 308.939 186.621C310.572 187.509 311.839 188.741 312.742 190.317C313.658 191.878 314.224 193.69 314.439 195.752H310.314C310.114 194.291 309.741 193.038 309.197 191.992C308.653 190.932 307.879 190.116 306.877 189.543C305.874 188.97 304.563 188.684 302.945 188.684C301.556 188.684 300.331 188.949 299.271 189.479C298.226 190.009 297.345 190.761 296.629 191.734C295.927 192.708 295.397 193.876 295.039 195.236C294.681 196.597 294.502 198.108 294.502 199.77V202.928C294.502 204.46 294.659 205.9 294.974 207.246C295.304 208.593 295.798 209.774 296.457 210.791C297.115 211.808 297.953 212.61 298.97 213.197C299.987 213.77 301.19 214.057 302.58 214.057C304.341 214.057 305.745 213.777 306.791 213.219C307.836 212.66 308.624 211.858 309.154 210.813C309.698 209.767 310.085 208.514 310.314 207.053Z" fill="black"/>
<path d="M362.684 185.719V217H358.602V185.719H362.684ZM372.738 185.719V189.113H348.568V185.719H372.738Z" fill="black"/>
<path d="M413.506 185.719V217H409.36V185.719H413.506Z" fill="black"/>
<path d="M476.811 200.371V202.348C476.811 204.697 476.517 206.802 475.93 208.664C475.343 210.526 474.498 212.109 473.395 213.412C472.292 214.716 470.967 215.711 469.42 216.399C467.888 217.086 466.169 217.43 464.264 217.43C462.417 217.43 460.719 217.086 459.172 216.399C457.64 215.711 456.308 214.716 455.176 213.412C454.059 212.109 453.193 210.526 452.577 208.664C451.961 206.802 451.653 204.697 451.653 202.348V200.371C451.653 198.022 451.954 195.924 452.555 194.076C453.171 192.214 454.038 190.632 455.155 189.328C456.272 188.011 457.597 187.008 459.129 186.32C460.676 185.633 462.374 185.289 464.221 185.289C466.126 185.289 467.845 185.633 469.378 186.32C470.924 187.008 472.249 188.011 473.352 189.328C474.469 190.632 475.322 192.214 475.909 194.076C476.51 195.924 476.811 198.022 476.811 200.371ZM472.708 202.348V200.328C472.708 198.466 472.514 196.819 472.128 195.387C471.755 193.955 471.204 192.751 470.473 191.777C469.743 190.804 468.848 190.066 467.788 189.565C466.742 189.063 465.553 188.813 464.221 188.813C462.932 188.813 461.765 189.063 460.719 189.565C459.688 190.066 458.8 190.804 458.055 191.777C457.325 192.751 456.759 193.955 456.358 195.387C455.957 196.819 455.756 198.466 455.756 200.328V202.348C455.756 204.224 455.957 205.886 456.358 207.332C456.759 208.764 457.332 209.975 458.077 210.963C458.836 211.937 459.731 212.675 460.762 213.176C461.808 213.677 462.975 213.928 464.264 213.928C465.611 213.928 466.807 213.677 467.852 213.176C468.898 212.675 469.779 211.937 470.495 210.963C471.225 209.975 471.777 208.764 472.149 207.332C472.521 205.886 472.708 204.224 472.708 202.348Z" fill="black"/>
<path d="M538.763 185.719V217H534.595L518.847 192.873V217H514.7V185.719H518.847L534.659 209.91V185.719H538.763Z" fill="black"/>
<path d="M8.27463 169.436H5.84912L22.0814 38.8316H28.2385L67.4198 159.547L106.415 38.8316H112.572L128.804 169.436H113.318L100.444 64.9525L66.6735 169.436H54.9191L20.7754 66.2585L8.27463 169.436Z" fill="black"/>
<path d="M335.104 38.8316C337.467 41.1949 338.649 44.2423 338.649 47.9739C338.649 51.0835 337.965 54.2553 336.596 57.4894L303.199 125.217V169.436H287.713V129.322L250.397 38.8316H266.256L301.893 122.978L334.357 57.4894C335.726 54.3797 336.41 51.1457 336.41 47.7873C336.41 44.4289 335.477 41.8168 333.611 39.951L335.104 38.8316Z" fill="black"/>
<path d="M454.967 40.6973V38.8316H531.091V40.6973L465.229 167.57H521.389C524.996 167.57 528.292 166.948 531.277 165.705C534.262 164.461 536.253 162.657 537.248 160.294L538.74 161.04C538.492 161.662 538.056 162.471 537.434 163.466C536.937 164.336 535.258 165.58 532.397 167.197C529.536 168.69 526.053 169.436 521.948 169.436H450.116V167.57L515.605 40.6973H454.967Z" fill="black"/>
<path d="M335.357 169.436H333.118L388.905 38.8316L390.958 37.8987L437.975 169.436H422.116L383.121 58.982L335.357 169.436Z" fill="black"/>
<path d="M149.69 169.436H147.452L203.238 38.8316L205.291 37.8987L252.308 169.436H236.449L197.454 58.982L149.69 169.436Z" fill="black"/>
<path fill-rule="evenodd" clip-rule="evenodd" d="M8.93911 170.186H5L21.4187 38.0817H28.7834L67.418 157.113L105.869 38.0817H113.234L129.653 170.186H112.655L100.114 68.4109L67.2192 170.186H54.3772L21.1165 69.6772L8.93911 170.186ZM8.2745 169.436H5.84898L22.0813 38.8317H28.2383L67.4197 159.548L106.414 38.8317H112.572L128.804 169.436H113.318L100.444 64.9526L66.6734 169.436H54.919L20.7752 66.2586L8.2745 169.436ZM150.183 170.186H146.315L202.663 38.2694L205.722 36.8787L253.373 170.186H235.918L197.384 61.035L150.183 170.186ZM149.69 169.436H147.451L203.238 38.8317L205.291 37.8988L252.308 169.436H236.449L197.454 58.9821L149.69 169.436ZM335.174 37.8414L335.634 38.3014C338.155 40.8223 339.399 44.0689 339.399 47.974C339.399 51.1962 338.689 54.4671 337.287 57.7817L337.278 57.8017L303.949 125.392V170.186H286.963V129.471L249.277 38.0817H266.753L301.946 121.182L333.678 57.1719C335 54.1611 335.66 51.035 335.66 47.7874C335.66 44.571 334.77 42.1709 333.081 40.4815L332.469 39.87L335.174 37.8414ZM334.357 57.4895L301.893 122.978L266.256 38.8317H250.397L287.713 129.322V169.436H303.199V125.217L336.596 57.4895C337.964 54.2555 338.649 51.0836 338.649 47.974C338.649 44.2424 337.467 41.195 335.104 38.8317L333.611 39.9512C333.789 40.1295 333.959 40.3146 334.12 40.5066C335.647 42.3231 336.41 44.75 336.41 47.7874C336.41 51.1458 335.725 54.3798 334.357 57.4895ZM335.85 170.186H331.982L388.33 38.2694L391.389 36.8787L439.04 170.186H421.585L383.051 61.035L335.85 170.186ZM335.357 169.436H333.118L388.905 38.8317L390.957 37.8988L437.975 169.436H422.116L383.121 58.9821L335.357 169.436ZM454.217 41.4475V38.0817H531.841V40.8805L466.463 166.82H521.388C524.908 166.82 528.105 166.214 530.989 165.012C533.842 163.823 535.656 162.14 536.556 160.003L536.867 159.265L539.693 160.678L539.437 161.319C539.164 161.999 538.705 162.847 538.078 163.851C537.744 164.427 537.093 165.028 536.248 165.654C535.374 166.302 534.21 167.034 532.766 167.85L532.755 167.856L532.744 167.862C529.75 169.424 526.142 170.186 521.948 170.186H449.366V167.388L514.373 41.4475H454.217ZM515.605 40.6975L450.116 167.57V169.436H521.948C526.053 169.436 529.536 168.69 532.397 167.197C535.257 165.58 536.937 164.336 537.434 163.466C538.056 162.471 538.491 161.662 538.74 161.04L537.248 160.294C537.15 160.525 537.043 160.751 536.927 160.972C535.853 163.005 533.97 164.583 531.277 165.705C528.292 166.949 524.996 167.57 521.388 167.57H465.229L531.091 40.6975V38.8317H454.967V40.6975H515.605Z" fill="black"/>
<path d="M263.385 11.3379L274.723 0.000111945L286.06 11.3379L274.723 22.6757L263.385 11.3379Z" fill="black"/>
<path d="M304.936 11.3379L316.273 0.000111945L327.611 11.3379L316.273 22.6757L304.936 11.3379Z" fill="black"/>
</svg>
