<svg width="891" height="311" viewBox="0 0 891 311" fill="none" xmlns="http://www.w3.org/2000/svg">
<path d="M47.5 70.2L132.7 215.5L139.2 210.8L224.8 70.2H268.1V307.6H217.9V168L144 282.7L120.7 281.9L50.3 170.8V307.6H0V70.2H47.5Z" fill="black"/>
<path d="M351.9 232.2C365.1 275.7 419.4 277.4 450.7 251.9L477.4 280.6C424.1 337.1 308.4 310.7 299.2 227.6C285.3 103.4 476.1 83.3999 490.8 200.8C492 210.3 494.5 225.2 487.4 232.1H351.9V232.2ZM441.3 201.5C437.2 148.7 356.7 148.8 351.9 201.5H441.3Z" fill="black"/>
<path d="M795.8 173.3C770 168.1 719 145.7 706.5 180.3C708 197.4 767.9 200.3 784 206.5C812.2 217.3 824.4 241.8 813.4 270.4C793.2 323 692.2 315.9 652 290.9L667.7 254.6C669.7 253.2 697.4 265.7 703.8 267.2C718.8 270.8 764.6 276.9 766.8 254.8L765.1 247.9C751.3 227.3 663.9 246.3 656.6 191.4C646.5 114.4 762.7 110.3 809.9 138.7L795.8 173.2V173.3Z" fill="black"/>
<path d="M634 123.3V170.8C613.7 169.5 593.2 170.5 581.4 189.4C579.2 192.9 572.6 208.5 572.6 211.3V307.7H519.5V126.1H569.8L571.2 148.4C586.6 129.3 609.8 122.2 634.1 123.3H634Z" fill="black"/>
<path d="M891 126.1H840.7V307.7H891V126.1Z" fill="black"/>
<path d="M807.2 0.400055C836.5 6.10005 863.2 25.8001 877 52.1001C877.6 54.0001 874.5 54.1001 872.9 53.4001C857.6 47.0001 834.1 22.1001 819.8 11.5001C818.2 18.4001 828.8 32.7001 834 39.2001C848.3 57.0001 871.2 72.6001 890.4 84.7001L891 112.1C860.9 112.1 828.7 93.6001 815.1 66.5001C813.8 63.9001 807.2 47.5001 807.2 46.4001V0.300049V0.400055Z" fill="black"/>
</svg>
