<svg width="1097" height="56" viewBox="0 0 1097 56" fill="none" xmlns="http://www.w3.org/2000/svg">
<path d="M1055.37 5.98C1058.74 1.99333 1064.72 0 1073.31 0C1081.89 0 1087.87 1.99333 1091.25 5.98C1094.67 9.96666 1096.38 17.2756 1096.38 27.9067C1096.38 38.5378 1094.67 45.8467 1091.25 49.8333C1087.87 53.7689 1081.89 55.7367 1073.31 55.7367C1064.72 55.7367 1058.74 53.7689 1055.37 49.8333C1052.04 45.8467 1050.38 38.5378 1050.38 27.9067C1050.38 17.2756 1052.04 9.96666 1055.37 5.98ZM1073.31 9.58333C1069.27 9.58333 1066.51 10.8611 1065.03 13.4167C1063.54 15.9722 1062.8 20.8022 1062.8 27.9067C1062.8 35.0111 1063.54 39.8411 1065.03 42.3967C1066.51 44.9011 1069.27 46.1533 1073.31 46.1533C1077.4 46.1533 1080.15 44.9011 1081.59 42.3967C1083.07 39.8411 1083.81 35.0111 1083.81 27.9067C1083.81 20.8022 1083.07 15.9722 1081.59 13.4167C1080.15 10.8611 1077.4 9.58333 1073.31 9.58333Z" fill="#FF4E2A"/>
<path d="M1018.27 54.74H1006.46V1.0733H1018.27V54.74Z" fill="#FF4E2A"/>
<path d="M951.418 0.383301C959.953 0.383301 965.882 2.35108 969.204 6.28663C972.578 10.2222 974.264 17.4289 974.264 27.9066C974.264 38.3844 972.578 45.5911 969.204 49.5266C965.882 53.4622 959.953 55.43 951.418 55.43C944.876 55.43 937.924 55.2 930.564 54.74V1.0733C937.924 0.6133 944.876 0.383301 951.418 0.383301ZM942.371 9.65997V46C943.24 46 944.671 46.0255 946.664 46.0766C948.709 46.0766 950.293 46.0766 951.418 46.0766C955.456 46.0766 958.19 44.8244 959.621 42.32C961.103 39.7644 961.844 34.96 961.844 27.9066C961.844 20.8533 961.103 16.0233 959.621 13.4166C958.19 10.81 955.456 9.53219 951.418 9.5833L942.371 9.65997Z" fill="#FF4E2A"/>
<path d="M897.107 1.07336V33.35C897.107 41.5278 895.523 47.3034 892.354 50.6767C889.236 54.05 883.844 55.7367 876.177 55.7367C868.102 55.7367 862.403 54.0756 859.081 50.7534C855.809 47.38 854.174 41.5789 854.174 33.35V1.07336H865.98V33.35C865.98 38.2567 866.67 41.63 868.05 43.47C869.43 45.2589 871.961 46.1534 875.641 46.1534C879.218 46.1534 881.697 45.2589 883.077 43.47C884.508 41.63 885.224 38.2567 885.224 33.35V1.07336H897.107Z" fill="#FF4E2A"/>
<path d="M824.782 10.7334H808.759V54.74H796.799V10.7334H780.775V1.07336H824.782V10.7334Z" fill="#FF4E2A"/>
<path d="M733.983 0C740.73 0 746.633 0.715555 751.693 2.14667L750.926 10.1967C746.378 10.0433 740.755 9.96666 734.06 9.96666C730.942 9.96666 728.872 10.2478 727.85 10.81C726.828 11.3211 726.316 12.6756 726.316 14.8733C726.316 16.6622 726.7 17.94 727.466 18.7067C728.233 19.4222 729.715 20.1633 731.913 20.93L742.11 24.4567C746.25 25.8878 749.163 27.8811 750.85 30.4367C752.588 32.9411 753.456 36.2122 753.456 40.25C753.456 46.2811 752 50.37 749.086 52.5167C746.173 54.6633 740.985 55.7367 733.523 55.7367C727.441 55.7367 721.308 55.0722 715.123 53.7433L715.813 45.1567C726.904 45.4122 732.808 45.54 733.523 45.54C736.743 45.54 738.864 45.2078 739.886 44.5433C740.96 43.8789 741.496 42.4733 741.496 40.3267C741.496 38.5378 741.139 37.2856 740.423 36.57C739.708 35.8033 738.379 35.0878 736.436 34.4233L725.626 30.59C721.64 29.21 718.778 27.2678 717.04 24.7633C715.353 22.2589 714.51 18.9622 714.51 14.8733C714.51 8.94444 715.941 4.98333 718.803 2.99C721.716 0.996666 726.776 0 733.983 0Z" fill="#FF4E2A"/>
<path d="M625.428 0C632.175 0 638.078 0.715555 643.138 2.14667L642.372 10.1967C637.823 10.0433 632.201 9.96666 625.505 9.96666C622.387 9.96666 620.317 10.2478 619.295 10.81C618.273 11.3211 617.762 12.6756 617.762 14.8733C617.762 16.6622 618.145 17.94 618.912 18.7067C619.678 19.4222 621.161 20.1633 623.358 20.93L633.555 24.4567C637.695 25.8878 640.608 27.8811 642.295 30.4367C644.033 32.9411 644.902 36.2122 644.902 40.25C644.902 46.2811 643.445 50.37 640.532 52.5167C637.618 54.6633 632.431 55.7367 624.968 55.7367C618.886 55.7367 612.753 55.0722 606.568 53.7433L607.258 45.1567C618.35 45.4122 624.253 45.54 624.968 45.54C628.188 45.54 630.31 45.2078 631.332 44.5433C632.405 43.8789 632.942 42.4733 632.942 40.3267C632.942 38.5378 632.584 37.2856 631.868 36.57C631.153 35.8033 629.824 35.0878 627.882 34.4233L617.072 30.59C613.085 29.21 610.223 27.2678 608.485 24.7633C606.798 22.2589 605.955 18.9622 605.955 14.8733C605.955 8.94444 607.386 4.98333 610.248 2.99C613.162 0.996666 618.222 0 625.428 0Z" fill="white"/>
<path d="M560.206 0.0766602C566.033 0.0766602 571.399 0.689994 576.306 1.91666L575.309 10.81C571.272 10.5033 566.237 10.35 560.206 10.35C556.322 10.35 553.664 11.6022 552.233 14.1067C550.802 16.56 550.086 21.16 550.086 27.9067C550.086 34.6533 550.802 39.2533 552.233 41.7067C553.664 44.16 556.322 45.3867 560.206 45.3867C567.413 45.3867 572.805 45.1567 576.383 44.6967L577.379 53.5133C572.728 54.9444 567.004 55.66 560.206 55.66C551.926 55.66 546.099 53.59 542.726 49.45C539.353 45.31 537.666 38.1289 537.666 27.9067C537.666 17.6844 539.353 10.5033 542.726 6.36333C546.099 2.17222 551.926 0.0766602 560.206 0.0766602Z" fill="white"/>
<path d="M466.418 5.98C469.791 1.99333 475.771 0 484.358 0C492.945 0 498.925 1.99333 502.298 5.98C505.722 9.96666 507.435 17.2756 507.435 27.9067C507.435 38.5378 505.722 45.8467 502.298 49.8333C498.925 53.7689 492.945 55.7367 484.358 55.7367C475.771 55.7367 469.791 53.7689 466.418 49.8333C463.096 45.8467 461.435 38.5378 461.435 27.9067C461.435 17.2756 463.096 9.96666 466.418 5.98ZM484.358 9.58333C480.32 9.58333 477.56 10.8611 476.078 13.4167C474.596 15.9722 473.855 20.8022 473.855 27.9067C473.855 35.0111 474.596 39.8411 476.078 42.3967C477.56 44.9011 480.32 46.1533 484.358 46.1533C488.447 46.1533 491.207 44.9011 492.638 42.3967C494.12 39.8411 494.861 35.0111 494.861 27.9067C494.861 20.8022 494.12 15.9722 492.638 13.4167C491.207 10.8611 488.447 9.58333 484.358 9.58333Z" fill="white"/>
<path d="M410.411 1.07336V41.0934C410.411 42.5245 410.743 43.5467 411.408 44.16C412.072 44.7734 413.146 45.08 414.628 45.08H433.104L433.641 54.1267C428.377 54.6889 420.787 54.97 410.871 54.97C406.731 54.97 403.639 53.9478 401.594 51.9034C399.601 49.8078 398.604 47.0223 398.604 43.5467V1.07336H410.411Z" fill="white"/>
<path d="M285.45 5.98C288.823 1.99333 294.803 0 303.39 0C311.977 0 317.957 1.99333 321.33 5.98C324.755 9.96666 326.467 17.2756 326.467 27.9067C326.467 38.5378 324.755 45.8467 321.33 49.8333C317.957 53.7689 311.977 55.7367 303.39 55.7367C294.803 55.7367 288.823 53.7689 285.45 49.8333C282.128 45.8467 280.467 38.5378 280.467 27.9067C280.467 17.2756 282.128 9.96666 285.45 5.98ZM303.39 9.58333C299.352 9.58333 296.592 10.8611 295.11 13.4167C293.628 15.9722 292.887 20.8022 292.887 27.9067C292.887 35.0111 293.628 39.8411 295.11 42.3967C296.592 44.9011 299.352 46.1533 303.39 46.1533C307.479 46.1533 310.239 44.9011 311.67 42.3967C313.152 39.8411 313.893 35.0111 313.893 27.9067C313.893 20.8022 313.152 15.9722 311.67 13.4167C310.239 10.8611 307.479 9.58333 303.39 9.58333Z" fill="white"/>
<path d="M229.613 0.383301C236.819 0.383301 241.93 1.5333 244.946 3.8333C247.961 6.08219 249.469 10.2222 249.469 16.2533C249.469 24.2777 246.045 28.6989 239.196 29.5166V29.9C242.978 30.7689 245.508 33.4777 246.786 38.0266L251.463 54.74H238.966L234.903 38.3333C234.494 36.6466 233.855 35.4711 232.986 34.8066C232.117 34.1422 230.839 33.81 229.153 33.81L220.796 33.7333V54.74H209.143V1.0733C213.998 0.6133 220.821 0.383301 229.613 0.383301ZM220.796 9.50663V24.61H229.383C232.5 24.61 234.621 24.0733 235.746 23C236.921 21.9266 237.509 19.9333 237.509 17.02C237.509 14.0555 236.921 12.0366 235.746 10.9633C234.621 9.88996 232.5 9.37885 229.383 9.42997L220.796 9.50663Z" fill="white"/>
<path d="M161.323 0.0766602C167.15 0.0766602 172.517 0.689994 177.423 1.91666L176.427 10.81C172.389 10.5033 167.354 10.35 161.323 10.35C157.439 10.35 154.781 11.6022 153.35 14.1067C151.919 16.56 151.203 21.16 151.203 27.9067C151.203 34.6533 151.919 39.2533 153.35 41.7067C154.781 44.16 157.439 45.3867 161.323 45.3867C168.53 45.3867 173.922 45.1567 177.5 44.6967L178.497 53.5133C173.845 54.9444 168.121 55.66 161.323 55.66C153.043 55.66 147.217 53.59 143.843 49.45C140.47 45.31 138.783 38.1289 138.783 27.9067C138.783 17.6844 140.47 10.5033 143.843 6.36333C147.217 2.17222 153.043 0.0766602 161.323 0.0766602Z" fill="white"/>
<path d="M106.668 54.74H94.8613V1.07336H106.668V54.74Z" fill="white"/>
<path d="M44.0833 1.07336H55.5833C58.3433 1.07336 59.8 2.55559 59.9533 5.52003L62.1 54.74H50.9067L49.0667 10.2734H47.7633L39.7133 43.5467C38.9978 46.1023 37.3878 47.38 34.8833 47.38H27.0633C24.4567 47.38 22.8467 46.1023 22.2333 43.5467L14.1067 10.2734H12.7267L11.1933 54.74H0L1.91667 5.52003C2.01889 2.55559 3.50111 1.07336 6.36333 1.07336H17.7867C20.2911 1.07336 21.85 2.32559 22.4633 4.83003L28.98 31.6634C29.44 33.2989 29.9256 35.8034 30.4367 39.1767H31.4333C31.4844 38.9723 31.6633 37.9245 31.97 36.0334C32.2767 34.1423 32.5578 32.6856 32.8133 31.6634L39.2533 4.83003C39.9689 2.32559 41.5789 1.07336 44.0833 1.07336Z" fill="white"/>
</svg>
