<svg width="1109" height="374" viewBox="0 0 1109 374" fill="none" xmlns="http://www.w3.org/2000/svg">
<path d="M967.432 340.047C988.121 340.047 1008.81 328.907 1023.66 310.87C1002.44 349.066 964.249 373.999 921.279 373.999C854.436 373.999 800.325 314.053 800.325 239.783C800.325 165.514 854.436 105.567 921.279 105.567C906.955 108.22 879.9 154.904 879.9 211.667C879.9 282.754 919.157 340.047 967.432 340.047ZM961.066 196.283C961.066 153.843 946.743 113.525 928.175 105.567C982.286 109.281 1022.6 152.782 1033.74 210.606H972.737H949.395H946.212C954.17 210.606 961.066 204.24 961.066 196.283Z" fill="#FF4E2A"/>
<path d="M660.063 342.171C660.063 354.903 669.612 369.227 681.814 371.348H648.923H558.738C570.94 369.227 580.489 354.903 580.489 342.171V327.317V209.016V108.222V98.1421V79.0442V48.2753V42.4398C580.489 29.7079 570.94 15.3845 558.738 13.2625L649.453 0C649.984 0 650.514 0 651.045 0C656.35 0 660.063 4.24399 660.063 9.54896V76.9222V122.014V125.728V327.317V342.171ZM799.584 342.171C799.584 354.903 809.133 369.227 821.335 371.348H788.444H698.259C710.461 369.227 720.01 354.903 720.01 342.171V327.317V185.674C720.01 158.619 747.596 151.722 747.596 132.094C747.596 120.423 732.742 109.813 711.522 109.813C689.241 109.813 669.612 117.771 662.716 120.954C712.052 97.0811 799.584 90.1846 799.584 178.247V327.317V342.171Z" fill="black"/>
<path d="M477.48 105.567C463.156 108.22 436.101 154.904 436.101 211.667C436.101 282.754 475.358 340.047 523.633 340.047C544.323 340.047 565.012 328.907 579.866 310.87C558.646 349.066 520.45 373.999 477.48 373.999C410.637 373.999 356.526 314.053 356.526 239.783C356.526 165.514 410.637 105.567 477.48 105.567ZM486.498 105.567C536.896 109.811 579.866 148.538 579.866 180.368C579.866 203.179 561.299 221.216 538.487 221.216C516.206 221.216 497.639 203.179 497.639 180.368C497.639 169.227 501.883 159.148 508.779 151.721C515.676 144.824 520.45 136.867 520.45 129.44C520.45 114.586 500.822 106.628 486.498 105.567Z" fill="black"/>
<path d="M355.631 342.173C355.631 354.905 365.18 369.228 377.381 371.35H344.49H254.306C266.507 369.228 276.056 354.905 276.056 342.173V327.319V189.389V159.151V153.315C276.056 140.053 266.507 126.26 254.306 124.138L345.021 110.875C345.551 110.875 346.082 110.875 346.612 110.875C351.917 110.875 355.631 114.589 355.631 119.894V187.267V327.319V342.173Z" fill="black"/>
<path d="M1026.64 332.488C1026.64 354.769 1044.68 373.336 1067.49 373.336C1090.3 373.336 1108.87 354.769 1108.87 332.488C1108.87 309.676 1090.3 291.109 1067.49 291.109C1044.68 291.109 1026.64 309.676 1026.64 332.488Z" fill="#FF4E2A"/>
<path d="M272.113 66.0444C272.113 88.3253 290.15 106.893 312.962 106.893C335.773 106.893 354.34 88.3253 354.34 66.0444C354.34 43.233 335.773 24.6655 312.962 24.6655C290.15 24.6655 272.113 43.233 272.113 66.0444Z" fill="black"/>
<path fill-rule="evenodd" clip-rule="evenodd" d="M119.75 187.349V216.526L119.75 306.711V342.254C119.75 354.986 129.299 369.309 141.5 371.431H27.3422L0 372.132C12.2014 370.01 21.7504 355.687 21.7504 342.955L21.7504 307.412L21.7504 217.227L21.7504 190.172V159.933V154.098C21.7504 140.835 12.2014 127.738 0 125.616L48.9102 119.762L109.14 110.957H110.731C116.036 110.957 119.75 114.67 119.75 119.975V187.349ZM259.271 342.254C259.271 354.986 268.82 369.309 281.021 371.431H248.13H157.946C170.147 369.309 179.696 354.986 179.696 342.254L179.696 327.4V185.757C179.696 171.147 187.741 162.415 195.142 154.382C201.445 147.54 207.282 141.205 207.282 132.177C207.282 120.506 192.428 109.896 171.208 109.896C148.927 109.896 129.299 117.853 122.402 121.036C171.738 97.164 259.271 90.2676 259.271 178.33V327.4V342.254ZM45.222 250.897L46.0858 250.033L45.222 249.17L40.959 244.909L40.0977 244.045L39.2339 244.909L34.9734 249.17L34.1096 250.033L34.9734 250.897L39.2339 255.158L40.0977 256.022L40.959 255.158L45.222 250.897ZM40.0977 238.675L40.959 239.539L45.222 235.276L46.0858 234.415L45.222 233.551L40.959 229.29L40.9587 229.291L40.0964 228.429L39.2342 229.291L39.2339 229.29L34.9734 233.551L34.1096 234.415L34.9734 235.276L39.2339 239.539L40.0977 238.675ZM99.4054 256.911L49.2921 274.824L48.0427 275.271L48.5918 276.479L49.1164 277.628L49.3116 278.06L49.746 278.245L99.3371 299.428L101.038 300.153V298.306V296.852V296.051L100.301 295.732L62.1248 279.224L100.223 265.774L101.038 265.486V264.622V258.061V256.328L99.4054 256.911ZM49.995 309.53L99.6568 303.359L101.028 303.188V304.569V310.96V312.039L99.957 312.17L67.1736 316.211L100.184 326.88L101.028 327.153V328.041V332.868V333.749L100.191 334.027L67.586 344.817L99.9545 348.738L101.028 348.868V349.949V351.43V352.811L99.6569 352.64L49.995 346.469L48.9262 346.335V345.259L48.9262 342.489V341.603L49.7705 341.328L90.9333 327.968L49.7705 314.671L48.9262 314.398V313.51V310.743V309.664L49.995 309.53ZM95.1426 149.872L95.1435 149.872L95.6452 148.871L96.6872 149.289L96.9288 149.386C97.2826 149.528 97.673 149.742 98.0732 149.994C98.5027 150.252 98.8418 150.66 99.0858 150.989C99.3713 151.375 99.6739 151.858 99.996 152.424V152.429L100.006 152.446L100.016 152.466V152.471C100.716 153.81 101.028 155.372 101.028 157.092V185.598H98.4612L98.1976 185.461L52.6328 161.941L52.6328 183.773H48.9262L48.9262 152.151L51.4957 152.151L51.7592 152.288L97.3216 175.94V157.3C97.3216 156.119 97.1191 155.079 96.736 154.159C96.3797 153.303 95.9429 152.905 95.5062 152.722L95.2337 152.607L95.2331 152.609L94.0326 152.103L94.6158 150.939L95.701 151.481L95.7014 151.48L94.6106 150.933L95.1426 149.872ZM58.1056 225.422L58.0739 225.407L58.0422 225.395H58.0348L57.6859 226.212L58.0348 225.39C56.6562 224.807 55.2653 224.499 53.872 224.499C52.1224 224.499 50.5778 225.068 49.3723 226.271L49.3748 226.273L49.2015 226.446L48.4524 227.196L49.0868 228.042L49.8506 229.06L50.6949 230.185L51.6905 229.189L51.9198 228.96C52.2688 228.611 52.8251 228.347 53.8036 228.347C54.848 228.347 55.8509 228.557 56.8245 228.982L78.4735 239.714L49.6822 251.907L48.938 252.222V261.424L50.6241 260.728L84.7569 246.653H101.04V237.827H83.266L58.1129 225.424L58.1056 225.422ZM57.5639 226.503L57.5688 226.493L57.5639 226.505V226.503ZM57.5761 226.478L57.5749 226.481H57.5761V226.478ZM49.2921 205.028L99.4054 187.115L101.038 186.531V188.264V194.825V195.687L100.223 195.975L62.1248 209.425L100.301 225.935L101.038 226.252V227.055V228.509V230.356L99.3371 229.629L49.746 208.449L49.3116 208.261L49.1164 207.831L48.5918 206.68L48.0427 205.474L49.2921 205.028ZM40.0964 240.405L39.2337 239.543L40.0964 238.68L40.9592 239.543L40.0964 240.405Z" fill="black"/>
</svg>
