<svg width="1109" height="465" viewBox="0 0 1109 465" fill="none" xmlns="http://www.w3.org/2000/svg">
<path d="M967.433 340.047C988.122 340.047 1008.81 328.907 1023.67 310.87C1002.45 349.066 964.25 373.999 921.28 373.999C854.437 373.999 800.326 314.053 800.326 239.783C800.326 165.514 854.437 105.567 921.28 105.567C906.956 108.22 879.901 154.904 879.901 211.667C879.901 282.754 919.158 340.047 967.433 340.047ZM961.067 196.283C961.067 153.843 946.744 113.525 928.176 105.567C982.287 109.281 1022.6 152.782 1033.75 210.606H972.738H949.396H946.213C954.171 210.606 961.067 204.24 961.067 196.283Z" fill="#FF4E2A"/>
<path d="M660.063 342.171C660.063 354.903 669.612 369.227 681.814 371.348H648.923H558.738C570.94 369.227 580.489 354.903 580.489 342.171V327.317V209.016V108.222V98.1421V79.0442V48.2753V42.4398C580.489 29.7079 570.94 15.3845 558.738 13.2625L649.453 0C649.984 0 650.514 0 651.045 0C656.35 0 660.063 4.24399 660.063 9.54896V76.9222V122.014V125.728V327.317V342.171ZM799.584 342.171C799.584 354.903 809.133 369.227 821.335 371.348H788.444H698.259C710.461 369.227 720.01 354.903 720.01 342.171V327.317V185.674C720.01 158.619 747.596 151.722 747.596 132.094C747.596 120.423 732.742 109.813 711.522 109.813C689.241 109.813 669.612 117.771 662.716 120.954C712.052 97.0811 799.584 90.1846 799.584 178.247V327.317V342.171Z" fill="black"/>
<path d="M477.48 105.567C463.156 108.22 436.101 154.904 436.101 211.667C436.101 282.754 475.358 340.047 523.633 340.047C544.323 340.047 565.012 328.907 579.866 310.87C558.646 349.066 520.45 373.999 477.48 373.999C410.637 373.999 356.526 314.053 356.526 239.783C356.526 165.514 410.637 105.567 477.48 105.567ZM486.498 105.567C536.896 109.811 579.866 148.538 579.866 180.368C579.866 203.179 561.299 221.216 538.487 221.216C516.206 221.216 497.639 203.179 497.639 180.368C497.639 169.227 501.883 159.148 508.779 151.721C515.676 144.824 520.45 136.867 520.45 129.44C520.45 114.586 500.822 106.628 486.498 105.567Z" fill="black"/>
<path d="M355.631 342.173C355.631 354.905 365.18 369.228 377.381 371.35H344.49H254.306C266.507 369.228 276.056 354.905 276.056 342.173V327.319V189.389V159.151V153.315C276.056 140.053 266.507 126.26 254.306 124.138L345.021 110.876C345.551 110.876 346.082 110.876 346.612 110.876C351.917 110.876 355.631 114.589 355.631 119.894V187.267V327.319V342.173Z" fill="black"/>
<path d="M1026.64 332.487C1026.64 354.768 1044.68 373.336 1067.49 373.336C1090.3 373.336 1108.87 354.768 1108.87 332.487C1108.87 309.676 1090.3 291.109 1067.49 291.109C1044.68 291.109 1026.64 309.676 1026.64 332.487Z" fill="#FF4E2A"/>
<path d="M272.113 66.0445C272.113 88.3254 290.15 106.893 312.962 106.893C335.773 106.893 354.34 88.3254 354.34 66.0445C354.34 43.2331 335.773 24.6656 312.962 24.6656C290.15 24.6656 272.113 43.2331 272.113 66.0445Z" fill="black"/>
<path fill-rule="evenodd" clip-rule="evenodd" d="M119.75 187.348V216.526L119.75 306.71V342.254C119.75 354.986 129.299 369.309 141.5 371.431H27.3422L0 372.132C12.2014 370.01 21.7504 355.687 21.7504 342.955L21.7504 307.411L21.7504 217.227L21.7504 190.171V159.933V154.098C21.7504 140.835 12.2014 127.737 0 125.615L48.9102 119.762L109.14 110.957H110.731C116.036 110.957 119.75 114.67 119.75 119.975V187.348ZM259.271 342.254C259.271 354.986 268.82 369.309 281.021 371.431H248.13H157.946C170.147 369.309 179.696 354.986 179.696 342.254L179.696 327.4V185.757C179.696 171.146 187.741 162.415 195.142 154.382C201.445 147.54 207.282 141.205 207.282 132.177C207.282 120.506 192.428 109.896 171.208 109.896C148.927 109.896 129.299 117.853 122.402 121.036C171.738 97.1638 259.271 90.2673 259.271 178.33V327.4V342.254ZM45.222 250.897L46.0858 250.033L45.222 249.169L40.959 244.909L40.0977 244.045L39.2339 244.909L34.9734 249.169L34.1096 250.033L34.9734 250.897L39.2339 255.157L40.0977 256.021L40.959 255.157L45.222 250.897ZM40.0977 238.675L40.959 239.539L45.222 235.276L46.0858 234.415L45.222 233.551L40.959 229.29L40.9587 229.291L40.0964 228.428L39.2342 229.291L39.2339 229.29L34.9734 233.551L34.1096 234.415L34.9734 235.276L39.2339 239.539L40.0977 238.675ZM99.4054 256.911L49.2921 274.824L48.0427 275.271L48.5918 276.479L49.1164 277.628L49.3116 278.06L49.746 278.245L99.3371 299.428L101.038 300.153V298.306V296.851V296.051L100.301 295.731L62.1248 279.224L100.223 265.774L101.038 265.486V264.622V258.06V256.328L99.4054 256.911ZM49.995 309.53L99.6568 303.359L101.028 303.188V304.569V310.96V312.038L99.957 312.17L67.1736 316.211L100.184 326.879L101.028 327.153V328.041V332.867V333.748L100.191 334.026L67.586 344.817L99.9545 348.738L101.028 348.867V349.948V351.43V352.811L99.6569 352.64L49.995 346.469L48.9262 346.335V345.258L48.9262 342.489V341.603L49.7705 341.327L90.9333 327.968L49.7705 314.671L48.9262 314.398V313.51V310.743V309.664L49.995 309.53ZM95.1426 149.872L95.1435 149.872L95.6452 148.871L96.6872 149.288L96.9288 149.386C97.2826 149.528 97.673 149.742 98.0732 149.994C98.5027 150.252 98.8418 150.66 99.0858 150.989C99.3713 151.375 99.6739 151.858 99.996 152.424V152.429L100.006 152.446L100.016 152.465V152.47C100.716 153.81 101.028 155.372 101.028 157.092V185.598H98.4612L98.1976 185.461L52.6328 161.941L52.6328 183.773H48.9262L48.9262 152.151L51.4957 152.151L51.7592 152.287L97.3216 175.94V157.299C97.3216 156.118 97.1191 155.079 96.736 154.159C96.3797 153.302 95.9429 152.905 95.5062 152.722L95.2337 152.607L95.2331 152.608L94.0326 152.103L94.6158 150.939L95.701 151.481L95.7014 151.48L94.6106 150.933L95.1426 149.872ZM58.1056 225.421L58.0739 225.407L58.0422 225.395H58.0348L57.6859 226.212L58.0348 225.39C56.6562 224.806 55.2653 224.499 53.872 224.499C52.1224 224.499 50.5778 225.068 49.3723 226.271L49.3748 226.273L49.2015 226.446L48.4524 227.195L49.0868 228.042L49.8506 229.06L50.6949 230.185L51.6905 229.189L51.9198 228.96C52.2688 228.611 52.8251 228.347 53.8036 228.347C54.848 228.347 55.8509 228.557 56.8245 228.982L78.4735 239.713L49.6822 251.907L48.938 252.221V261.423L50.6241 260.728L84.7569 246.653H101.04V237.827H83.266L58.1129 225.424L58.1056 225.421ZM57.5639 226.502L57.5688 226.493L57.5639 226.505V226.502ZM57.5761 226.478L57.5749 226.48H57.5761V226.478ZM49.2921 205.027L99.4054 187.114L101.038 186.531V188.264V194.825V195.687L100.223 195.975L62.1248 209.425L100.301 225.935L101.038 226.252V227.055V228.509V230.356L99.3371 229.629L49.746 208.449L49.3116 208.261L49.1164 207.831L48.5918 206.679L48.0427 205.474L49.2921 205.027ZM40.0964 240.405L39.2337 239.542L40.0964 238.68L40.9592 239.542L40.0964 240.405Z" fill="black"/>
<path d="M1061.61 414.98C1064.98 410.993 1070.96 409 1079.55 409C1088.14 409 1094.11 410.993 1097.49 414.98C1100.91 418.966 1102.62 426.275 1102.62 436.906C1102.62 447.537 1100.91 454.846 1097.49 458.833C1094.11 462.768 1088.14 464.736 1079.55 464.736C1070.96 464.736 1064.98 462.768 1061.61 458.833C1058.29 454.846 1056.62 447.537 1056.62 436.906C1056.62 426.275 1058.29 418.966 1061.61 414.98ZM1079.55 418.583C1075.51 418.583 1072.75 419.861 1071.27 422.416C1069.79 424.972 1069.04 429.802 1069.04 436.906C1069.04 444.011 1069.79 448.841 1071.27 451.396C1072.75 453.901 1075.51 455.153 1079.55 455.153C1083.64 455.153 1086.4 453.901 1087.83 451.396C1089.31 448.841 1090.05 444.011 1090.05 436.906C1090.05 429.802 1089.31 424.972 1087.83 422.416C1086.4 419.861 1083.64 418.583 1079.55 418.583Z" fill="black"/>
<path d="M1024.51 463.74H1012.7V410.073H1024.51V463.74Z" fill="black"/>
<path d="M957.662 409.383C966.197 409.383 972.126 411.351 975.449 415.286C978.822 419.222 980.509 426.428 980.509 436.906C980.509 447.384 978.822 454.591 975.449 458.526C972.126 462.462 966.197 464.429 957.662 464.429C951.12 464.429 944.169 464.199 936.809 463.739V410.073C944.169 409.613 951.12 409.383 957.662 409.383ZM948.615 418.659V454.999C949.484 454.999 950.915 455.025 952.909 455.076C954.953 455.076 956.537 455.076 957.662 455.076C961.7 455.076 964.434 453.824 965.865 451.319C967.347 448.764 968.089 443.959 968.089 436.906C968.089 429.853 967.347 425.023 965.865 422.416C964.434 419.809 961.7 418.532 957.662 418.583L948.615 418.659Z" fill="black"/>
<path d="M903.351 410.073V442.35C903.351 450.527 901.767 456.303 898.598 459.676C895.48 463.05 890.088 464.736 882.421 464.736C874.346 464.736 868.647 463.075 865.325 459.753C862.054 456.38 860.418 450.578 860.418 442.35V410.073H872.225V442.35C872.225 447.256 872.915 450.63 874.295 452.47C875.675 454.258 878.205 455.153 881.885 455.153C885.462 455.153 887.941 454.258 889.321 452.47C890.752 450.63 891.468 447.256 891.468 442.35V410.073H903.351Z" fill="black"/>
<path d="M831.024 419.733H815.001V463.74H803.041V419.733H787.018V410.073H831.024V419.733Z" fill="black"/>
<path d="M740.225 409C746.972 409 752.875 409.715 757.935 411.146L757.169 419.196C752.62 419.043 746.997 418.966 740.302 418.966C737.184 418.966 735.114 419.247 734.092 419.81C733.07 420.321 732.559 421.675 732.559 423.873C732.559 425.662 732.942 426.94 733.709 427.706C734.475 428.422 735.957 429.163 738.155 429.93L748.352 433.456C752.492 434.887 755.405 436.881 757.092 439.436C758.83 441.941 759.699 445.212 759.699 449.25C759.699 455.281 758.242 459.37 755.329 461.516C752.415 463.663 747.227 464.736 739.765 464.736C733.683 464.736 727.55 464.072 721.365 462.743L722.055 454.156C733.146 454.412 739.05 454.54 739.765 454.54C742.985 454.54 745.106 454.207 746.129 453.543C747.202 452.878 747.739 451.473 747.739 449.326C747.739 447.537 747.381 446.285 746.665 445.57C745.95 444.803 744.621 444.087 742.679 443.423L731.869 439.59C727.882 438.21 725.02 436.267 723.282 433.763C721.595 431.258 720.752 427.962 720.752 423.873C720.752 417.944 722.183 413.983 725.045 411.99C727.959 409.996 733.019 409 740.225 409Z" fill="black"/>
<path d="M631.673 409C638.419 409 644.323 409.715 649.383 411.146L648.616 419.196C644.067 419.043 638.445 418.966 631.749 418.966C628.631 418.966 626.561 419.247 625.539 419.81C624.517 420.321 624.006 421.675 624.006 423.873C624.006 425.662 624.389 426.94 625.156 427.706C625.923 428.422 627.405 429.163 629.603 429.93L639.799 433.456C643.939 434.887 646.853 436.881 648.539 439.436C650.277 441.941 651.146 445.212 651.146 449.25C651.146 455.281 649.689 459.37 646.776 461.516C643.863 463.663 638.675 464.736 631.213 464.736C625.13 464.736 618.997 464.072 612.813 462.743L613.503 454.156C624.594 454.412 630.497 454.54 631.213 454.54C634.433 454.54 636.554 454.207 637.576 453.543C638.649 452.878 639.186 451.473 639.186 449.326C639.186 447.537 638.828 446.285 638.113 445.57C637.397 444.803 636.068 444.087 634.126 443.423L623.316 439.59C619.329 438.21 616.467 436.267 614.729 433.763C613.043 431.258 612.199 427.962 612.199 423.873C612.199 417.944 613.63 413.983 616.493 411.99C619.406 409.996 624.466 409 631.673 409Z" fill="black"/>
<path d="M566.45 409.076C572.277 409.076 577.644 409.69 582.55 410.916L581.553 419.81C577.516 419.503 572.481 419.35 566.45 419.35C562.566 419.35 559.908 420.602 558.477 423.106C557.046 425.56 556.33 430.16 556.33 436.906C556.33 443.653 557.046 448.253 558.477 450.706C559.908 453.16 562.566 454.386 566.45 454.386C573.657 454.386 579.049 454.156 582.627 453.696L583.623 462.513C578.972 463.944 573.248 464.66 566.45 464.66C558.17 464.66 552.343 462.59 548.97 458.45C545.597 454.31 543.91 447.128 543.91 436.906C543.91 426.684 545.597 419.503 548.97 415.363C552.343 411.172 558.17 409.076 566.45 409.076Z" fill="black"/>
<path d="M472.661 414.98C476.034 410.993 482.014 409 490.601 409C499.188 409 505.168 410.993 508.541 414.98C511.966 418.966 513.678 426.275 513.678 436.906C513.678 447.537 511.966 454.846 508.541 458.833C505.168 462.768 499.188 464.736 490.601 464.736C482.014 464.736 476.034 462.768 472.661 458.833C469.339 454.846 467.678 447.537 467.678 436.906C467.678 426.275 469.339 418.966 472.661 414.98ZM490.601 418.583C486.563 418.583 483.803 419.861 482.321 422.416C480.839 424.972 480.098 429.802 480.098 436.906C480.098 444.011 480.839 448.841 482.321 451.396C483.803 453.901 486.563 455.153 490.601 455.153C494.69 455.153 497.45 453.901 498.881 451.396C500.363 448.841 501.104 444.011 501.104 436.906C501.104 429.802 500.363 424.972 498.881 422.416C497.45 419.861 494.69 418.583 490.601 418.583Z" fill="black"/>
<path d="M416.654 410.073V450.093C416.654 451.524 416.987 452.546 417.651 453.16C418.315 453.773 419.389 454.08 420.871 454.08H439.348L439.884 463.126C434.62 463.688 427.03 463.97 417.114 463.97C412.974 463.97 409.882 462.947 407.838 460.903C405.844 458.807 404.848 456.022 404.848 452.546V410.073H416.654Z" fill="black"/>
<path d="M291.693 414.98C295.067 410.993 301.047 409 309.633 409C318.22 409 324.2 410.993 327.573 414.98C330.998 418.966 332.71 426.275 332.71 436.906C332.71 447.537 330.998 454.846 327.573 458.833C324.2 462.768 318.22 464.736 309.633 464.736C301.047 464.736 295.067 462.768 291.693 458.833C288.371 454.846 286.71 447.537 286.71 436.906C286.71 426.275 288.371 418.966 291.693 414.98ZM309.633 418.583C305.596 418.583 302.836 419.861 301.353 422.416C299.871 424.972 299.13 429.802 299.13 436.906C299.13 444.011 299.871 448.841 301.353 451.396C302.836 453.901 305.596 455.153 309.633 455.153C313.722 455.153 316.482 453.901 317.913 451.396C319.396 448.841 320.137 444.011 320.137 436.906C320.137 429.802 319.396 424.972 317.913 422.416C316.482 419.861 313.722 418.583 309.633 418.583Z" fill="black"/>
<path d="M235.856 409.383C243.062 409.383 248.174 410.533 251.189 412.833C254.205 415.082 255.712 419.222 255.712 425.253C255.712 433.277 252.288 437.698 245.439 438.516V438.899C249.221 439.768 251.751 442.477 253.029 447.026L257.706 463.739H245.209L241.146 447.333C240.737 445.646 240.098 444.471 239.229 443.806C238.36 443.142 237.082 442.809 235.396 442.809L227.039 442.733V463.739H215.386V410.073C220.241 409.613 227.065 409.383 235.856 409.383ZM227.039 418.506V433.609H235.626C238.744 433.609 240.865 433.073 241.989 431.999C243.165 430.926 243.752 428.933 243.752 426.019C243.752 423.055 243.165 421.036 241.989 419.963C240.865 418.889 238.744 418.378 235.626 418.429L227.039 418.506Z" fill="black"/>
<path d="M167.566 409.076C173.393 409.076 178.76 409.69 183.666 410.916L182.67 419.81C178.632 419.503 173.597 419.35 167.566 419.35C163.682 419.35 161.024 420.602 159.593 423.106C158.162 425.56 157.446 430.16 157.446 436.906C157.446 443.653 158.162 448.253 159.593 450.706C161.024 453.16 163.682 454.386 167.566 454.386C174.773 454.386 180.165 454.156 183.743 453.696L184.74 462.513C180.089 463.944 174.364 464.66 167.566 464.66C159.286 464.66 153.46 462.59 150.086 458.45C146.713 454.31 145.026 447.128 145.026 436.906C145.026 426.684 146.713 419.503 150.086 415.363C153.46 411.172 159.286 409.076 167.566 409.076Z" fill="black"/>
<path d="M112.911 463.74H101.104V410.073H112.911V463.74Z" fill="black"/>
<path d="M50.3265 410.073H61.8265C64.5865 410.073 66.0432 411.555 66.1965 414.52L68.3432 463.74H57.1498L55.3098 419.273H54.0065L45.9565 452.546C45.2409 455.102 43.6309 456.38 41.1265 456.38H33.3065C30.6998 456.38 29.0898 455.102 28.4765 452.546L20.3498 419.273H18.9698L17.4365 463.74H6.24316L8.15983 414.52C8.26205 411.555 9.74427 410.073 12.6065 410.073H24.0298C26.5343 410.073 28.0932 411.325 28.7065 413.83L35.2232 440.663C35.6832 442.298 36.1687 444.803 36.6798 448.176H37.6765C37.7276 447.972 37.9065 446.924 38.2132 445.033C38.5198 443.142 38.8009 441.685 39.0565 440.663L45.4965 413.83C46.2121 411.325 47.8221 410.073 50.3265 410.073Z" fill="black"/>
</svg>
