<svg width="2995" height="1200" viewBox="0 0 2995 1200" fill="none" xmlns="http://www.w3.org/2000/svg">
<g clip-path="url(#clip0_2435_102)">
<path d="M1835.91 0.52295C1887.29 0.52295 1871.92 -5.60472 1888.77 24.1794C1908.56 59.1761 1932.31 28.5464 1923.63 0.52295H1958.09C1958.4 47.1473 1968.38 39.8691 1992.17 83.0766C2016.24 126.807 2055.32 168.141 2073.93 180.169C2124.4 212.795 2233.75 99.9779 2430.76 138.121C2613.07 173.414 2624.87 252.089 2673.51 215.663C2678.82 211.688 2690.52 200.086 2695.47 196.783C2709.63 187.352 2722.12 195.223 2725.31 208.847C2731.9 237.044 2705.07 248.82 2671.93 266.462C2593.51 308.197 2487.56 63.7086 2157.01 204.889C2091.31 232.948 2046.35 253.074 1966.65 111.353C1952.61 86.3889 1948.42 78.5441 1940.1 72.0067C1923.18 58.7141 1896.78 87.5307 1937.99 154.848C2008.41 269.905 2057.69 250.25 2049.46 336.403C2047.02 361.977 2061.94 369.221 2072.18 377.763C2146.91 440.129 2157.59 527.076 2128.64 588.641C2098.75 652.218 2028.76 621.048 1982.91 661.031C1961.62 679.588 1966.22 692.48 1979.24 695.766C2015.72 704.97 2149.37 590.942 2148.6 812.636C2148.38 877.138 2172.31 884.521 2176.88 944.578C2183.28 1028.61 2175.74 1088.18 2136.39 1145.47C2110.55 1183.06 2068.53 1147.86 2107.44 1111.66C2143.96 1077.69 2137.73 1036.99 2134.87 953.242C2133.72 919.858 2124.32 899.74 2117.07 883.022C2092.75 826.888 2131.84 708.474 2058.42 714.515C2035.77 716.38 2001.43 723.929 1995.72 746.016C1981.97 799.309 1979.38 891.756 1932.57 963.056C1904.87 1005.25 1922.07 996.292 1823.36 1175.2C1806 1206.65 1782.8 1217.56 1749.53 1226.75C1576.33 1274.59 1612.37 1302.12 1629.06 1298.32C1659.6 1291.36 1678.29 1278.2 1728.97 1266.18C1864.07 1234.14 1820.29 1255.45 1897.26 1102.91C1953.11 992.23 1931.05 1005.64 1946.06 987.445C1954.12 977.674 1968.16 982.32 1970.33 998.515C1974.58 1030.17 1910.17 1136.86 1877.79 1218.09C1857.98 1267.82 1823.08 1273.92 1771.36 1284.85C1653.31 1309.81 1658.44 1328.02 1620.27 1329.18C1603.25 1329.7 1607.7 1332.56 1554.65 1362.23C1528.58 1376.81 1518.07 1400.96 1516.4 1429.82H1480.38C1487.18 1386.15 1510.56 1338.5 1552.4 1324.75C1596.19 1310.36 1592.31 1292.25 1573.59 1286.58C1559.79 1282.4 1539.01 1281.89 1526.18 1256.37C1512.49 1229.14 1510.39 1187 1534.09 1151.9C1561.35 1111.52 1599.25 1102.29 1663.84 1081.24C1742.82 1055.5 1774.34 931.355 1804.61 957.138C1815.23 966.186 1807.13 978.232 1798.82 988.665C1708.72 1101.81 1737.89 1087.4 1621.44 1133.74C1579.94 1150.26 1545 1170.65 1549.03 1217.73C1550.92 1239.7 1564.63 1246.43 1586.34 1254.71C1607.1 1262.63 1602.62 1234.37 1749.75 1195.79C1787.03 1186.02 1796.4 1163.39 1806.43 1144.28C1851.6 1058.22 1861.28 1046.45 1878 1006.85C1901.81 950.479 1916.18 936.497 1930.17 899.217C1956.9 827.951 1942.06 792.283 1954.89 748.413C1956.42 743.175 1957.92 737.771 1958.28 732.366C1960.74 696.411 1893.54 717.182 1909.38 765.236C1924.9 812.296 1910.73 870.592 1890.2 915.665C1889.96 916.205 1843.18 1016.45 1842.87 1016.99C1783.25 1119.4 1768.2 1150.13 1717.72 1168.63C1646.88 1194.62 1625.16 1203.71 1608.27 1217.34C1582.57 1238.08 1564.35 1191.6 1596.99 1179.43C1766.54 1116.14 1724.76 1150.19 1806.62 1023.51C1828.68 989.38 1834.66 963.144 1849.04 935.599C1903.06 832.205 1888.15 758.542 1860.48 760.982C1792.93 766.936 1647.7 889.559 1614.99 905.789C1549.02 938.546 1504.83 925.401 1455.54 965.95C1380.43 1027.76 1362.67 1056.46 1295.51 1128.28C1278.79 1146.16 1289.08 1155.07 1311.67 1266.81C1324.95 1332.54 1287.31 1388.93 1262.66 1429.81C877.213 1429.81 791.383 1431.88 1170.26 1423.5C1218.42 1422.43 1227.86 1426.8 1239.84 1402.61C1287.57 1306.15 1276.19 1298.76 1255.22 1168.79C1252.31 1150.77 1246.76 1144.7 1136.07 1127.8C1130.17 1126.9 1124.15 1126.07 1118.23 1126.28C1096.4 1127.07 1094.11 1159.47 1128.9 1159.37C1162.38 1159.27 1211.43 1175.98 1223.64 1219.31C1233.03 1252.63 1234.76 1300.99 1223.18 1336.98C1203.88 1397.01 1155.59 1396.14 963.512 1404.47C941.136 1405.43 906.405 1407.47 903.991 1429.81H883.63C887.641 1414.56 888.605 1399.03 909.21 1390.93C943.793 1377.32 1012.17 1382.59 1064.9 1376.2C1144.79 1366.52 1177.79 1368.29 1189.05 1326.44C1196.92 1297.19 1198.31 1267.57 1193.61 1237.79C1188.26 1203.91 1163.31 1197.15 1128.35 1185.89C1097.68 1176.02 1088.45 1203.99 1118.41 1214.42C1127.43 1217.57 1149.26 1220.16 1157.62 1246.13C1167.14 1275.76 1160.84 1322.38 1123.46 1338.69C1071.89 1361.19 989.457 1352.05 905.936 1368.97C883.465 1373.52 864.05 1348.34 863.442 1323.37C862.886 1300.28 873.21 1262.99 898.304 1255.35C916.078 1249.93 912.257 1249.68 1025.07 1254.15C1057.77 1255.45 1048.2 1282.13 1023.92 1276.73C998.087 1270.97 973.124 1272.09 921.834 1274.07C886.782 1275.42 877.725 1316.84 887.277 1333.72C896.142 1349.39 909.965 1344.63 923.389 1342.67C1018.8 1328.76 1112.66 1344.9 1127.23 1292.76C1145.05 1228.98 1083.62 1222.65 1091.86 1250.18C1092.98 1253.92 1094.75 1257.47 1095.71 1261.24C1100.14 1278.52 1094.19 1291.95 1080.18 1300.88C1049.84 1320.24 1017.85 1313.5 978.125 1315.01C911.05 1317.56 914.819 1330.47 906.144 1320.67C898.495 1312.01 904.408 1296.98 919.551 1296.43C970.259 1294.56 964.598 1293.93 980.426 1293.77C1022.49 1293.31 1031.94 1298.21 1053.21 1290.03C1078.47 1280.3 1072.27 1248.54 1051.76 1242.2C1023.73 1233.55 981.651 1230.6 952.337 1229.77C879.401 1227.71 865.804 1223.36 858.232 1251.65C851.573 1276.54 849.706 1299.16 838.34 1316.07C820.419 1342.74 785.383 1329.13 782.075 1281.54C780 1251.65 792.138 1226.01 789.047 1192.01C786.234 1161.09 787.493 1121.67 817.64 1114.71C832.349 1111.31 847.031 1121.32 864.232 1133.12C892.677 1152.65 1015.57 1174.27 1049.79 1178.31C1073.45 1181.1 1081.8 1181.76 1085.26 1172.08C1087.8 1164.98 1080.65 1154.72 1066.49 1154.47C1048.33 1154.15 1024.33 1156.93 996.064 1148.53C940.668 1132.08 899.78 1119.94 858.328 1088.53C816.459 1056.81 810.772 1049.09 797.001 1058.91C758.979 1086.02 754.029 1120.73 757.051 1167.06C766.767 1316.13 738.183 1283.66 769.19 1329.94C779.513 1345.35 776.605 1353.41 776.909 1377.67C777.1 1392.79 793.389 1398.37 802.428 1386.42C815.217 1369.54 829.892 1334.94 859.674 1369.17C877.925 1390.14 870.041 1405.19 863.268 1429.83H841.336C846.884 1413.54 856.947 1389.33 840.198 1385.11C822.051 1380.54 821.877 1422.97 794.5 1424.17C774.234 1425.06 770.44 1405.83 746.414 1417.04C717.848 1430.38 622.154 1412.25 582.256 1416.48C541.091 1420.84 493.04 1418.66 452.499 1415.04C403.832 1410.69 382.142 1413.74 282.697 1413.85C192.3 1413.95 152.124 1290.55 166.251 1213.83C174.326 1169.97 183.113 1140.29 166.564 1107.82C156.9 1088.85 162.075 1078.01 174.587 1073.1C204.16 1061.5 206.644 1094.66 213.225 1120.17C230.47 1187.06 172.182 1249.37 236.322 1345.82C253.462 1371.59 275.386 1370.58 295.991 1370.32C540.952 1367.32 463.474 1384.23 573.373 1375.64C652.44 1369.46 750.695 1410.39 753.283 1370.66C754.342 1354.36 743.323 1331.7 728.684 1337.94C715.156 1343.7 704.719 1350.42 688.56 1349.18C619.974 1343.92 624.507 1302.42 590.835 1323.16C552.448 1346.79 507.332 1338.51 464.742 1323.84C392.648 1299.01 282.714 1360.08 257.248 1263.52C248.903 1231.89 257.595 1198.93 263.126 1149.82C272.99 1062.24 132.058 960.956 126.866 1106.04C123.688 1194.8 126.101 1143.64 115.474 1238.89C103.969 1341.93 162.413 1384.32 174.074 1429.84H123.948C122.064 1415.71 107.668 1396.94 97.639 1374.92C63.4285 1299.77 86.8289 1219.27 86.5337 1109.21C86.2037 984.621 195.139 953.25 268.709 1053.59C327.292 1133.48 273.207 1207.51 294.627 1255.03C315.753 1301.89 403.102 1257.91 468.293 1280.21C502.79 1292 530.923 1307.23 573.339 1289.65C588.664 1283.3 595.819 1275.85 595.003 1254.71C592.476 1189.41 556.546 1168.36 532.72 1118.32C528.935 1110.36 521.867 1105.78 513.401 1103.5C484.287 1095.67 472.149 1109.47 456.693 1119.62C411.577 1149.28 370.116 1110.81 364.516 1164.14C362.675 1181.68 373.589 1192.78 390.894 1189.78C429.672 1183.06 475.413 1148.22 521.189 1193.04C546.083 1217.42 551.979 1222.13 555.99 1230C567.591 1252.76 538.642 1279.19 518.307 1256.37C510.562 1247.68 503.824 1232.45 488.255 1220.42C466.157 1203.34 447.125 1212.23 420.364 1222.34C387.864 1234.61 354.166 1238.79 337.165 1208.4C300.766 1143.37 385.294 1128.29 318.74 1051.23C269.082 993.73 233.769 960.023 188.375 950.47C162.092 944.935 124.096 940.089 97.5088 943.889C84.8144 945.702 75.298 953.067 70.5919 972.714C57.0293 1029.32 47.1221 1081.86 45.2119 1140.05C40.5405 1282.04 29.4351 1274.35 56.6038 1429.85H14.2835C11.6873 1382.07 -8.03148 1024.32 30.2426 957.591C51.151 921.139 19.7884 916.685 16.2719 870.426C14.4745 846.7 11.149 762.813 9.40372 731.556C7.78002 702.53 1.76279 690.71 0.772947 681.384C-3.13434 644.557 44.7083 636.599 43.5969 678.56C43.3451 688.026 52.2971 833.904 58.4446 863.122C72.4761 929.777 93.0892 896.349 142.885 900.341C235.228 907.742 274.761 940.838 358.116 1035.1C385.216 1065.74 372.113 1096.29 400.35 1098.11C423.151 1099.58 453.715 1088.61 447.715 1064.32C431.895 1000.38 431.435 1035.95 375.89 990.226C330.253 952.649 329.463 948.456 287.108 910.749C179.64 815.094 113.711 888.705 93.671 760.093C89.0864 730.667 82.1835 701.554 81.7494 671.543C81.1763 632.057 14.4398 636.677 10.1244 551.569C8.34441 516.398 -9.16894 505.276 6.4255 492.908C18.9375 482.988 42.4247 487.033 45.4289 508.179C52.1582 555.535 52.5142 575.705 67.7439 593.539C80.4817 608.462 90.4149 619.349 102.198 624.866C115.647 631.159 127.499 619.288 123.019 606.361C112.843 577.013 102.041 569.517 86.3253 522.526C58.2449 438.578 -3.80292 487.835 9.26479 347.979C12.1128 317.515 2.8221 207.365 5.55721 85.7264C7.45876 0.383483 17.2444 9.59679 15.8464 0.52295H55.0061C51.7848 9.867 48.1901 19.1065 45.4203 28.59C28.3063 87.2431 42.9022 264.275 49.4925 313.897C55.0582 355.824 23.0792 403.712 75.8277 448.026C120.449 485.516 118.764 517.837 148.738 570.78C165.183 599.824 155.354 612.489 176.106 633.086C215.11 671.804 180.17 705.084 257.673 747.917C396.66 824.726 434.639 953.146 486.189 889.542C507.436 863.331 511.239 850.169 506.646 833.913C498.822 806.247 484.826 782.599 462.78 763.894C298.465 624.474 323.724 668.562 270.211 572.933C223.185 488.889 173.996 391.509 105.462 332.437C74.4818 305.739 79.7784 278.918 69.2808 170.372C60.103 75.441 64.8091 28.0583 149.962 18.1651C168.726 15.986 216.673 12.9091 253.653 19.7166C280.153 24.5978 292.318 38.1084 306.723 60.9629C336.21 107.77 382.863 176.909 428.891 207.443C538.711 280.278 648.767 282.631 702.609 292.167C765.369 303.281 787.936 313.218 814.818 310.576C839.79 308.118 844.922 286.214 831.524 276.051C808.479 258.565 678.766 252.429 636.889 248.768C573.955 243.268 515.216 220.814 459.124 191.649C421.623 172.15 416.9 165.125 390.087 132.952C370.516 109.479 317.524 41.9959 314.989 0.505517C364.516 0.505517 327.318 -5.43912 360.443 43.6608C379.615 72.0852 423.221 137.947 453.576 155.737C574.997 226.872 648.897 220.919 769.389 224.065C854.889 226.297 841.075 256.194 876.154 242.082C885.618 238.273 1009.2 209.134 1076.95 201.821C1250.17 183.116 1228.5 195.502 1327.24 177.99C1361.46 171.915 1436.5 183.063 1411.45 222.767C1403.01 236.147 1391.33 232.878 1377.98 224.798C1361.29 214.687 1344.26 215.253 1324.02 216.099C1226.74 220.152 1218.55 219.516 1185.79 223.534C1062.27 238.674 895.065 256.674 871.647 281.62C862.374 291.505 865.856 307.561 888.484 311.997C905.597 315.344 918.309 304.388 944.063 296.264C976.154 286.135 1041.06 284.584 1081.78 278.561C1146.71 268.955 1206.28 251.732 1263.17 251.932C1314.56 252.115 1324.99 256.334 1348.31 252.786C1390.25 246.406 1388.01 310.097 1330.68 290.956C1252.27 264.771 1172.27 314.569 1041.93 322.396C985.714 325.769 974.331 320.94 947.023 329.212C912.83 339.567 917.771 359.101 930.995 365.569C953.431 376.551 1092.07 367.268 1148.37 350.245C1278.47 310.908 1319.1 304.144 1324.73 330.267C1327.72 344.187 1308.15 351.692 1292.92 354.133C1130.62 380.143 1197.84 409.866 995.092 406.981C927.973 406.03 921.591 394.403 898.182 408.811C841.813 443.503 809.782 462.705 733.625 435.867C509.155 356.791 511.23 372.742 394.029 279.79C299.681 204.968 278.894 100.701 191.596 108.572C162.535 111.196 147.418 128.655 138.891 133.78C124.486 142.436 113.086 126.328 117.254 111.701C123.722 89.0212 222.612 45.0118 281.716 116.801C352.108 202.3 394.428 293.71 599.587 349.853C759.334 393.566 720.183 384.527 758.753 395.658C807.759 409.805 864.25 391.526 880.113 375.026C891.253 363.433 888.735 345.024 857.677 340.047C837.862 336.865 823.51 359.816 786.512 352.32C738.088 342.514 755.74 339.742 616.084 313.13C324.713 257.589 323.298 64.8331 245.96 52.0547C217.628 47.374 193.072 44.0094 138.822 53.9985C101.069 60.9455 89.8505 93.7456 94.6434 131.967C124.382 368.942 93.6796 250.642 199.203 397.933C306.471 547.673 293.802 584.186 351.708 629.869C470.95 723.946 471.098 721.192 494.264 742.678C534.604 780.098 530.22 808.357 540.014 825.728C546.969 838.071 561.834 836.232 568.78 815.853C590.783 751.351 512.923 702.434 399.343 621.397C339.205 578.486 329.854 542.173 285.354 474.028C165.409 290.346 156.318 317.567 143.024 276.983C136.182 256.116 132.24 249.265 133.821 237.027C135.366 225.05 156.526 215.994 162.908 235.432C166.277 245.7 162.552 270.855 190.936 301.825C205.967 318.212 215.023 329.36 269.438 402.561C373.042 541.938 330.01 541.389 496.834 648.627C576.091 699.575 632.174 743.654 598.78 831.542C589.932 854.815 597.277 864.342 598.233 883.981C600.455 929.655 560.505 977.918 518.133 1004.03C494.663 1018.5 477.862 1019.26 484.504 1046.77C488.707 1064.17 497.937 1073.87 520.573 1072.21C537.322 1070.98 540.604 1060.38 581.37 1011.54C597.998 991.612 624.42 969.489 632.295 932.88C639.771 898.11 638.643 870.949 641.603 847.154C661.782 684.992 682.934 727.625 454.21 575.4C354.044 508.737 372.66 468.998 193.75 267.351C176.94 248.402 201.165 230.019 214.259 248.768C246.672 295.148 342.878 407.242 371.696 450.824C447.915 566.1 602.939 604.182 674.494 679.422C722.693 730.109 689.906 775.365 678.436 909.685C672.836 975.277 644.156 998.114 581.223 1072.53C573.122 1082.11 563.953 1091.01 573.07 1105.85C607.193 1161.39 631.54 1177.54 627.928 1264.7C626.183 1306.92 725.358 1332.52 728.832 1288.93C738.852 1163.29 702.47 1114.38 753.751 1054.5C773.896 1030.98 794.934 1031.05 796.185 1002.43C797.027 983.148 797.027 980.245 806.804 921.618C843.697 700.481 918.726 686.884 1000.04 627.35C1025.04 609.046 1058.99 630.706 1040.61 659.505C1019.89 691.966 918.448 711.987 880.27 810.518C846.398 897.927 831.559 980.637 828.468 1010.96C827.347 1021.94 834.328 1027.49 842.412 1033.87C888.761 1070.42 901.473 1082.4 922.599 1092.45C1013.67 1135.78 1013.06 1133.85 1065.13 1132.71C1078.47 1132.43 1091.46 1119.51 1080.28 1105.15C1024.87 1034.02 945.591 1015.19 956.922 948.761C975.677 838.803 1123.83 816.55 1177.62 695.574C1197.39 651.094 1205.96 617.579 1246.58 583.21C1282.14 553.121 1313.02 532.044 1334.05 493.309C1363.46 439.109 1393.71 429.87 1433.02 381.712C1565.54 219.359 1541.33 209.544 1482.66 98.7576C1474.86 84.0354 1461.82 89.7099 1436.83 84.8112C1239.46 46.1014 1298.01 94.3732 1162.65 97.6854C1104.97 99.0975 1070.2 97.6418 1026.9 104.667C959.431 115.606 933.982 124.872 903.661 122.17C848.16 117.219 832.123 102.933 760.151 112.503C612.646 132.115 543.079 93.4144 494.229 79.8602C457.032 69.5399 444.181 76.8966 419.895 77.254C402.651 77.5068 396.929 57.5461 409.649 47.2171C420.13 38.7098 428.083 41.9872 470.612 46.3716C596.687 59.3591 542.645 87.3651 829.674 73.1921C874.643 70.9695 912.717 88.4547 954.873 83.4514C987.815 79.5377 1030.14 70.6644 1067.06 68.5637C1141.78 64.3101 1157.91 68.1279 1203.27 57.7814C1266.68 43.3295 1283.75 31.9633 1411.97 48.8035C1465.79 55.8725 1482.72 64.3275 1487.76 39.6599C1491.99 18.9408 1483.29 11.4796 1464.28 12.4384C1350.2 18.1999 1315.68 -1.38596 1214.93 18.4614C1144.59 32.3206 1148.59 24.0313 982.727 36.3651C894.266 42.946 888.084 21.6168 782.891 30.5686C559.168 49.6141 491.772 -4.50645 395.21 20.6057C375.517 25.731 368.189 15.524 366.747 0.540383H1511.73C1513.22 7.88837 1515.2 15.1753 1516.09 22.6018C1519.44 50.4857 1499.05 61.8084 1514.99 85.4126C1563.79 157.69 1592.29 203.617 1564.95 259.838C1541.89 307.238 1483.91 391.596 1423.79 452.019C1368.66 507.42 1378.03 523.964 1319.4 575.845C1284.35 606.858 1260.8 624.613 1243.35 666.017C1219.42 722.787 1198.84 771.739 1138.68 817.518C1084.74 858.555 985.358 913.233 996.221 967.633C1000.89 991.036 1040.45 1027.49 1059.92 1041.19C1088.07 1061.01 1096.31 1079.97 1106.41 1091.56C1119.37 1106.42 1165.88 1088.61 1246.81 1113.3C1266.08 1119.18 1272.49 1103.38 1282.63 1091.69C1324.77 1043.13 1363.06 997.896 1411.44 954.567C1500.18 875.072 1533.66 929.507 1683.79 817.936C1725.12 787.219 1768.11 759.065 1812.81 733.534C1827.08 725.384 1842.26 720.128 1858.73 719.527C1880.14 718.751 1886.54 706.435 1904.11 691.573C1933.76 666.487 1926.72 650.832 1959.47 628.335C2006.17 596.259 2039 594.751 2067.84 585.659C2128.69 566.483 2115.16 453.099 2036.22 409.831C2023.12 402.648 2012.99 409.02 2000.99 418.896C1547.3 792.37 1575.28 756.938 1541.96 786.138C1524.26 801.636 1502.82 787.01 1508.43 770.449C1516.98 745.188 1512.44 774.693 1814.26 512.467C1986.03 363.224 2001.58 374.459 2003.56 347.953C2009.61 267.177 1947.48 278.918 1900.39 172.002C1871.31 105.992 1893.89 90.8517 1863.33 55.6197C1849.56 39.7471 1842.3 20.2919 1835.95 0.531667L1835.91 0.52295ZM560.61 874.985C557.744 863.941 547.473 860.62 538.903 868.056C524.289 880.738 508.113 948.029 448.566 941.012C383.774 933.385 356.892 846.526 261.719 794.855C218.036 771.137 188.939 756.162 172.208 709.006C159.565 673.382 156.361 665.877 146.011 654.424C136.851 644.286 119.416 649.516 118.982 665.276C118.599 679.231 119.885 687.198 128.646 739.017C141.123 812.819 154.729 798.42 204.239 816.271C319.868 857.962 340.438 933.342 439.293 988.84C452.673 996.353 465.689 996.388 478.383 987.863C517.404 961.662 572.696 921.444 560.618 874.977L560.61 874.985ZM980.426 1210.2C1068.63 1220.04 1073.1 1233.21 1079.83 1219.35C1083.94 1210.87 1073.19 1201.76 1059.85 1200.05C1009.66 1193.62 895.473 1175.73 889.821 1174.9C854.403 1169.74 850.678 1157.85 835.605 1150.97C823.414 1145.4 811.388 1153.55 815.044 1182.71C818.595 1210.98 813.95 1224 805.562 1270.13C801.42 1292.9 822.06 1312.9 830.491 1274.6C847.457 1197.56 837.237 1194.23 980.426 1210.2Z" fill="white" fill-opacity="0.2"/>
<path d="M2103.76 0.522949C2133.79 56.657 2159.84 -8.2371 2523.77 18.0256C2618.75 24.8768 2660.83 30.5163 2712.69 28.0408C2755.74 25.9838 2812.18 23.4473 2840.69 30.7952C2885.31 42.3097 2897.68 86.1012 2891.97 128.21C2875.54 249.125 2872.34 325.569 2822.08 376.203C2782.22 416.368 2766.92 440.783 2705.64 524.862C2659.31 588.44 2655.54 645.611 2643.8 707.925C2627.41 794.802 2619.04 801.122 2636.07 888.749C2640.68 912.457 2672.46 904.578 2687.86 891.198C2753.42 834.253 2726.05 821.3 2772.81 677.801C2781.91 649.909 2812.95 663.14 2796.89 691.913C2743.42 787.672 2780.75 852.54 2695.44 916.589C2657.96 944.726 2641.04 921.244 2618.67 941.509C2566.92 988.386 2536.08 963.248 2520.94 998.681C2499.36 1049.16 2482.41 1113.72 2504.32 1174.88C2513.44 1200.32 2535.69 1206.25 2563.42 1206.04C2591.83 1205.82 2632.15 1203.68 2654.47 1186.55C2666.47 1177.32 2678.08 1173.79 2684.43 1187.57C2707.25 1237.17 2562.32 1252.67 2508.88 1234.09C2469.62 1220.45 2461.59 1187.26 2461.32 1145.1C2460.24 979.888 2508.17 989.868 2490.73 958.559C2484.13 946.722 2458.27 924.495 2454.08 801.898C2453.27 777.892 2458.04 755.622 2472.07 735.766C2506.25 687.346 2497.11 643.99 2526.57 529.691C2561.86 392.825 2608.59 357.672 2555.12 324.409C2433.92 249.003 2359.65 185.931 2224.46 246.911C2152.66 279.302 2136.76 289.936 2162.23 339.655C2225.73 463.638 2237.61 462.304 2208.05 598.525C2199.41 638.351 2201.2 653.97 2207.75 678.324C2225.85 745.729 2222.87 760.189 2251.5 887.023C2274.45 988.648 2261.42 1091.54 2236.66 1152.6C2214.45 1207.34 2171.09 1217.46 2107.3 1237.34C2061.21 1251.7 2046.97 1203.6 2099.33 1195.82C2211.28 1179.18 2225.32 1100.94 2220.47 987.445C2217.62 920.738 2209.83 909.119 2200.43 858.154C2187.19 786.374 2186.6 754.288 2170.81 696.263C2158.67 651.626 2161.89 631.813 2172.03 586.496C2200.73 458.268 2182 470.445 2116.86 346.968C2100.2 315.388 2099.89 280.923 2128.4 259.036C2151.5 241.298 2217.21 215.863 2245.05 207.391C2323.31 183.577 2387.71 189.191 2458.87 222.932C2669.08 322.605 2621.65 345.747 2572.47 489.77C2552.82 547.263 2546.69 592.11 2532.98 675.457C2523.94 730.396 2500.41 749.241 2496.19 778.189C2491.15 812.724 2497.94 894.249 2518.68 933.089C2524.74 944.464 2533.12 948.012 2545.55 945.301C2563.24 941.431 2579.78 934.615 2595.02 924.748C2629.14 902.669 2587.77 877.992 2599.9 791.717C2604.57 758.516 2608.71 757.374 2625.6 665.494C2638.32 596.276 2645.45 558.525 2683.81 497.824C2841.17 248.907 2800.43 379.628 2850.23 149.252C2871.87 49.1608 2819.09 70.9346 2691.47 69.3569C2650.38 68.8513 2629.45 63.421 2544.12 52.1332C2359.81 27.7532 2310.43 38.274 2148.35 58.8448C2108.09 63.9527 2079.23 33.8809 2069.32 0.531666H2103.78L2103.76 0.522949Z" fill="white" fill-opacity="0.2"/>
<path d="M2828.97 1429.82C2834.16 1388.17 2842.61 1389.5 2860.48 1284.08C2870.47 1225.09 2869.22 1193.14 2905.87 1144.89C2939.22 1100.99 2946.81 1085.09 2965.36 1070.32C2974.72 1062.87 2980.96 1055.53 2981.17 1044.54C2987.01 724.513 2969.4 721.087 2972.25 474.281C2972.55 448.645 2956.93 437.07 2938.91 432.171C2905.65 423.132 2840.45 484.27 2867.87 508.196C2881.73 520.286 2905.09 528.48 2917.68 568.366C2933.07 617.161 2942.89 673.06 2910.09 712.24C2857.3 775.286 2835.6 837.661 2826.07 848.121C2816.88 858.206 2805.7 841.418 2810.12 831.717C2829.29 789.642 2856.08 742.181 2879.37 702.251C2911.05 647.913 2865.75 509.382 2809.26 535.601C2702.86 584.988 2699.15 671.412 2679.82 779.043C2676.02 800.233 2674.25 825.58 2682.71 845.358C2697.09 878.943 2660.14 887.162 2656.94 862.111C2648.97 799.806 2650.45 808.4 2669.4 705.947C2682.09 637.383 2692.43 576.289 2757.62 525.56C2765.48 519.449 2786.66 507.752 2792.73 505.302C2831.73 489.587 2801.56 455.993 2858.3 418.234C2883.91 401.193 2908.54 396.687 2908.7 370.764C2908.9 341.041 2941.02 136.378 2932.34 0.514282H2971.5C2975.59 55.5675 2977.52 267.169 2963.53 343.455C2959.49 365.534 2955.58 381.224 2967.44 391.945C2975.22 398.979 2984.29 403.172 2995.01 403.05V1088.61C2982.05 1092.29 2969.4 1109.48 2961.8 1120.63C2919.07 1183.19 2908.61 1183.79 2899.04 1221.6C2892.04 1249.28 2886.83 1306.73 2879.42 1342.66C2869.52 1390.66 2868.44 1381.24 2861.88 1429.81H2828.99L2828.97 1429.82Z" fill="white" fill-opacity="0.2"/>
<path d="M1647.96 0.522949C1635.4 25.7397 1688.71 68.4155 1710.69 85.9618C1757.96 123.704 1771.05 174.896 1776.42 241.385C1784.61 342.923 1754.61 350.759 1574.26 543.01C1440.35 685.742 1410.06 712.902 1385.53 779.217C1362.56 841.305 1328.13 867.942 1264.01 935.948C1208.58 994.732 1165.1 977.247 1102.33 1016.94C1083.86 1028.62 1066.25 1021.48 1064.18 1011.12C1061.52 997.765 1073.5 993.05 1084.96 987.541C1245.6 910.243 1194.05 951.856 1302.49 839.884C1352.11 788.657 1338.6 747.054 1390.14 683.676C1408.36 661.284 1698.6 341.38 1715.63 318.064C1748.19 273.462 1734.28 213.274 1713.63 162.004C1684.04 88.5941 1604.46 72.3815 1611.93 0.531666H1647.96V0.522949Z" fill="white" fill-opacity="0.2"/>
<path d="M1572.77 0.522949C1579.17 39.1195 1577.26 51.9501 1605.61 87.5656C1628.5 116.313 1645.21 133.841 1660.67 163.687C1720.84 279.877 1607.33 357.227 1471.66 530.04C1387.76 636.912 1352.27 643.005 1313.54 729.446C1235.4 903.88 1128.17 903.959 1075.84 963.074C1062.56 978.084 1046.3 978.398 1036.79 972.244C995.656 945.632 1127 894.066 1200.49 824.447C1241.62 785.467 1256.13 753.181 1276.68 705.206C1310.41 626.453 1352.94 608.043 1415.3 531.504C1415.74 530.964 1556.82 362.614 1609.87 289.326C1643.76 242.51 1629.34 186.036 1596.28 139.211C1538.84 57.8599 1552.77 67.8925 1543.01 0.531666H1572.76L1572.77 0.522949Z" fill="white" fill-opacity="0.2"/>
<path d="M1323.73 1429.82C1325.79 1404.74 1337.91 1376.58 1349.25 1351.27C1398.09 1242.24 1283.1 1195.21 1381.79 1091.01C1442.51 1026.89 1481.76 984.673 1569.32 959.762C1699.75 922.647 1657.39 890.928 1803.17 821.083C1808.25 818.651 1835.44 805.593 1840.9 804.225C1862.5 798.803 1869.63 829.511 1855.23 841.88C1841.38 853.787 1837.33 838.882 1793.26 860.751C1726.72 893.761 1701.27 927.084 1660.49 959.378C1629.77 983.715 1592.75 991.629 1551.36 1004.09C1498.92 1019.89 1451.58 1070.56 1410.67 1115.71C1357.04 1174.89 1395.02 1189.92 1403.29 1280.28C1408.19 1333.78 1362.28 1390.98 1359.75 1429.83H1323.73V1429.82Z" fill="white" fill-opacity="0.2"/>
<path d="M2033.28 0.522949C2041.7 32.7564 2058.81 59.8211 2082.31 82.972C2147.52 147.221 2258.56 2.85896 2617.61 110.595C2646.59 119.294 2666.57 115.441 2733.55 113.48C2776.76 112.216 2772.18 113.837 2791.8 108.912C2816.85 102.619 2828.75 124.828 2820.65 143.578C2813.17 160.871 2797.7 158.823 2786.21 158.657C2651.17 156.652 2645.03 166.179 2594.99 146.01C2290.59 23.2816 2153.95 180.117 2076.38 124.34C2046.85 103.107 2012.93 58.2173 1997.23 0.522949H2033.26H2033.28Z" fill="white" fill-opacity="0.2"/>
<path d="M1550.85 1429.82C1557.01 1406.04 1572.11 1389.16 1593 1377.76C1622.66 1361.57 1652.28 1344.99 1684.83 1335.27C1795.85 1302.07 1891.11 1317.64 1906.67 1255.7C1935.17 1142.25 1998.56 1069.07 1994.13 1005.55C1991.33 965.288 1974.88 940.978 1998.95 889.995C2015.51 854.937 2028.47 836.624 2024.32 774.938C2023.08 756.441 2039.09 744.848 2056.59 750.636C2077.82 757.662 2068.8 780.072 2067.53 791.02C2063.6 824.909 2065.59 846.718 2046.8 876.023C1989.76 965 2046.95 963.388 2016.31 1065.07C1997.93 1126.09 1961.3 1182.61 1949.46 1227.78C1938.79 1268.48 1939.28 1297.63 1894.26 1317.82C1823.73 1349.44 1712.18 1335.83 1644.5 1380.38C1616.66 1398.71 1591.3 1403.39 1583.75 1429.83H1550.86L1550.85 1429.82Z" fill="white" fill-opacity="0.2"/>
<path d="M1700.07 1427.92C2758.83 1409.99 2745.46 1434.46 2758.9 1403.56C2833.83 1231.16 2799.3 1192.3 2852.93 1115.67C2904.36 1042.2 2921.67 1026.93 2928.37 993.137C2936.23 953.433 2930.56 868.448 2925.78 828.256C2921.77 794.576 2962.07 794.114 2956.95 825.249C2950.87 862.181 2968.2 973.621 2946.16 1030.18C2938.69 1049.34 2928.72 1062.73 2878.88 1130.06C2837.81 1185.51 2845.2 1232.67 2824.14 1313.28C2807.66 1376.36 2792.88 1401.73 2781.97 1429.82C2383.83 1429.82 1301.96 1433.48 1700.06 1427.92H1700.07Z" fill="white" fill-opacity="0.2"/>
<path d="M1405.17 1429.82C1408.35 1361.71 1465.71 1331 1448.35 1262.28C1436.84 1216.74 1423.7 1178.2 1452.36 1136.17C1546.16 998.611 1623.86 1052.09 1696.96 972.366C1739.18 926.334 1749.88 917.896 1782.48 901.466C1797.86 893.717 1818.25 880.224 1822.41 878.681C1843.98 870.653 1852.75 902.024 1830.91 914.079C1817.61 921.427 1785.92 926.927 1760.62 948.718C1740.63 965.933 1713.23 998.376 1705.66 1006.69C1669.97 1045.97 1633.4 1053.62 1577.99 1074.02C1522.46 1094.45 1468.53 1152.16 1478.04 1212.82C1485 1257.21 1497.76 1292 1475.75 1338.6C1452.97 1386.84 1442.57 1402.45 1439.62 1429.82H1405.16H1405.17Z" fill="white" fill-opacity="0.2"/>
<path d="M2902.59 1429.82C2902.59 1423.64 2923.18 1239.05 2923.24 1238.51C2925.48 1219.2 2925.32 1212.1 2932.33 1201.13C2937.94 1192.33 2951.88 1192.18 2957.06 1206.11C2961.42 1217.81 2952.51 1205.85 2933.92 1429.82H2902.59Z" fill="white" fill-opacity="0.2"/>
<path d="M2977.77 1429.82C2980.57 1163.4 2980.79 1181.27 2976.97 1157.84C2974.85 1144.88 2981.78 1128.47 2995 1127.92V1429.81H2977.77V1429.82Z" fill="white" fill-opacity="0.2"/>
<path d="M2548.21 1280.34C2585.27 1278.77 2599.63 1276.64 2655.46 1268.48C2704.64 1261.3 2713.48 1198.86 2707 1159.04C2699.09 1110.46 2628.16 1181.31 2572.21 1164.62C2522.82 1149.89 2520.07 1075.44 2548.11 1029.16C2566.14 999.413 2622.84 977.395 2653.88 968.217C2704.24 953.329 2726.09 923.946 2756.5 884.373C2784.34 848.138 2763.08 825.362 2802.21 739C2820.03 699.68 2831.2 678.037 2819.79 646.683C2807.45 612.785 2772.82 621.066 2750.39 672.72C2722.45 737.038 2722.36 818.79 2715.57 831.089C2710.73 839.866 2696.11 836.607 2696.18 826.574C2696.25 816.951 2700.89 786.748 2702.37 777.919C2713 714.262 2728.44 607.904 2790.58 593.016C2826.98 584.291 2851.73 615.017 2855.37 650.85C2859.18 688.383 2841.59 712.188 2815.28 765.89C2782.1 833.608 2805.09 853.159 2776.39 896.262C2704.46 1004.3 2667.64 987.192 2602.88 1023.75C2542.54 1057.8 2543.83 1154.62 2627.05 1123.87C2657.46 1112.62 2671.35 1104.69 2693.83 1108.52C2713.58 1111.87 2717.72 1096.41 2732.95 1077.59C2774.93 1025.71 2797.27 1002.78 2831.21 947.742C2849.26 918.463 2861.59 910.627 2885.77 875.36C2888.27 871.716 2890.45 867.838 2893.12 864.334C2897.55 858.52 2908.96 859.086 2912.06 868.099C2917.43 883.693 2909.53 894.179 2891.9 912.344C2847.33 958.254 2857.29 967.458 2782.32 1061.94C2736.37 1119.84 2727.85 1126.94 2732.9 1147.98C2741 1181.72 2733.18 1227.82 2718.95 1258.67C2706.7 1285.24 2688.44 1300.76 2656.93 1305.11C2587.63 1314.69 2506.67 1318.82 2439.96 1297.66C2337.24 1265.1 2375.01 1204.41 2398.06 1002.79C2403.38 956.353 2385.71 934.841 2373.87 847.502C2367.42 799.91 2370.52 785.345 2355.37 750.906C2339.29 714.349 2330 683.432 2335 627.812C2350.47 455.462 2406.34 435.318 2355.43 387.36C2340.77 373.553 2325.66 360.269 2308.31 349.818C2281.55 333.692 2290.96 314.708 2308.53 312.137C2327.1 309.426 2335.74 319.467 2373.18 352.973C2442.18 414.721 2424.79 420.247 2399.35 518.098C2346.14 722.778 2401.83 715.613 2409.8 779.418C2415.81 827.515 2414.84 856.663 2433.13 928.051C2454.62 1011.92 2420.11 1035.86 2418.54 1130.6C2416.49 1253.06 2403.6 1267.92 2548.2 1280.32L2548.21 1280.34Z" fill="white" fill-opacity="0.2"/>
<path d="M2250.05 666.923C2239.8 568.837 2295.13 478.935 2261.48 426.418C2241.78 395.684 2179.83 328.332 2227.27 285.552C2247.08 267.683 2287.37 251.627 2335.22 255.759C2369.89 258.757 2395.23 273.575 2421.06 290.712C2507.08 347.77 2544.19 357.314 2509.95 449.142C2461.46 579.166 2458.52 703.341 2458.37 703.898C2451.64 729.786 2407.28 720.957 2414.41 694.232C2421.38 668.109 2425.4 559.876 2476.21 433.296C2498.41 377.99 2470.54 371.609 2389.2 312.695C2354.22 287.365 2318.12 275.484 2278.14 292.638C2257.72 301.398 2246.22 316.329 2253.95 337.432C2271.38 385.006 2325.24 406.554 2314.07 476.128C2300.92 558.063 2285.89 599.981 2290.06 653.665C2294.09 705.441 2310.96 750.601 2322.83 804.469C2365.84 999.631 2354.45 991.237 2338.96 1095.68C2321.64 1212.38 2332.41 1254.88 2233.63 1282.78C2158.36 1304.04 1990.21 1339.86 1984.4 1261.41C1981 1215.48 2009.39 1192.98 2053.13 1057.77C2070.11 1005.25 2050.89 934.013 2054.51 916.807C2059.91 891.102 2102.83 895.103 2097.91 924.852C2095.32 940.498 2095.96 956.083 2096.9 971.834C2107.14 1142.18 1941 1289.38 2087.25 1273.62C2133 1268.68 2211.11 1249.25 2238.24 1238.23C2274.17 1223.63 2274.81 1198.58 2293.4 1128.98C2341.64 948.404 2265.21 811.922 2250.05 666.923Z" fill="white" fill-opacity="0.2"/>
<path d="M2545.11 1382.9C2474.9 1381.05 2429.61 1383.31 2363.66 1363.04C2336.63 1354.73 2319.33 1352.38 2277.48 1362.6C2107.96 1404.01 1993.03 1369.19 1952.08 1373.18C1930.64 1375.28 1905.08 1386.27 1865.3 1391.47C1837.73 1395.07 1735.6 1400.89 1730.56 1401.48C1671.58 1408.26 1679.09 1412.51 1669.35 1409.52C1652.41 1404.33 1662.36 1383 1681.63 1383.02C1696.95 1383.03 1689.54 1381.37 1758.35 1375.01C1856.62 1365.93 1877.18 1361.97 1919.93 1347.47C1989.56 1323.87 1995.16 1356.26 2139.45 1342.1C2241.03 1332.13 2265.44 1317.57 2312.54 1312.35C2348.16 1308.4 2373.06 1322.51 2421.17 1337.67C2484.67 1357.68 2600.02 1347.74 2670.9 1341.87C2694.01 1339.97 2714.11 1337.57 2725.55 1317.56C2744.01 1285.29 2753.92 1248.65 2759.95 1211.92C2779.63 1092.07 2759.16 1155.53 2864.75 996.824C2885.2 966.081 2883.3 952.989 2892.92 942.242C2903.96 929.908 2921.49 947.532 2909.09 972.061C2850.4 1088.22 2801.49 1108.48 2792.57 1178.17C2786.18 1228.1 2773.21 1299.15 2746.97 1342.04C2722.1 1382.71 2687.48 1382.48 2545.11 1382.9Z" fill="white" fill-opacity="0.2"/>
<path d="M2531.28 820.69C2531.08 763.981 2553.78 742.451 2568.86 660.482C2581.46 591.996 2586.27 543.228 2616.1 477.148C2660.3 379.184 2652.63 355.615 2693.53 317.21C2721.32 291.104 2744.77 269.722 2754.32 228.145C2766.19 176.508 2796.9 186.846 2800.46 209.256C2802.58 222.619 2798.98 231.579 2773.34 283.416C2760.74 308.903 2742.5 326.772 2720.66 347.125C2684.41 380.901 2693.21 392.424 2640.18 502.452C2613.9 556.991 2606.34 607.146 2595.69 673.417C2583.21 751.09 2562.04 768.409 2567.46 841.436C2570.28 879.492 2574.92 878.097 2576.75 892.122C2580.12 918.062 2539.98 922.787 2537.87 897.265C2531.65 821.998 2534.13 860.708 2531.28 820.682V820.69Z" fill="white" fill-opacity="0.2"/>
<path d="M2607.48 1097.88C2588.92 1097.85 2585.92 1068.94 2601.55 1059.47C2638.48 1037.09 2709.38 1053.91 2795.32 910.147C2828.6 854.475 2808.24 919.396 2917.64 742.599C2930.43 721.915 2958.68 731.251 2952.61 750.287C2946.5 769.472 2944.01 753.643 2898.32 820.507C2847.1 895.486 2842.08 888.801 2826.21 908.997C2806.74 933.795 2782.12 986.207 2716.92 1044.5C2697.72 1061.67 2676.33 1068.8 2650.92 1077.1C2623.54 1086.05 2618.51 1098.71 2607.47 1097.88H2607.48Z" fill="white" fill-opacity="0.2"/>
<path d="M639.624 1102.84C641.812 1038.08 710.823 1021.47 719.332 950.156C749.688 695.905 788.865 690.431 748.159 665.189C443.234 476.059 493.968 557.706 267.068 279.154C240.229 246.205 232.024 225.835 202.007 220.614C179.188 216.648 173.024 210.886 137.085 196.757C118.842 189.583 117.123 173.466 126.405 162.736C134.055 153.898 143.276 159.285 152.202 166.929C189.86 199.18 216.273 189.888 238.024 209.788C261.945 231.675 277.175 256.099 312.271 299.559C460.236 482.77 516.11 484.601 760.394 616.847C777.942 626.348 792.017 642.656 814.453 628.335C900.518 573.448 948.916 521.027 1047.28 534.764C1092.97 541.144 1110.54 563.738 1149.29 540.055C1190.98 514.585 1188.76 521.149 1246.98 480.914C1254.74 475.544 1262.31 470.044 1271.89 468.379C1280.71 466.854 1290.14 470.698 1294.32 477.819C1308.91 502.74 1261.79 522.413 1226.08 543.733C1133.25 599.153 1153.45 577.945 1147.27 632.554C1132.02 767.215 960.977 766.622 914.254 951.943C908.141 976.192 914.159 996.815 931.273 1014.65C960.048 1044.63 1011 1078.91 1036.26 1090.14C1050.52 1096.49 1051.43 1109.18 1040.5 1113.66C1024.49 1120.22 1015.22 1109.14 990.125 1094.63C930.752 1060.31 867.497 1029.01 877.057 960.023C908.767 731.19 1078.54 761.924 1096.1 615.949C1098 600.172 1092.64 590.68 1077.66 585.503C987.963 554.489 932.601 612.358 843.992 665.581C802.844 690.292 823.431 672.144 782.691 827.402C765.595 892.558 766.185 921.688 755.8 968.269C739.181 1042.85 669.371 1052.57 681.953 1121.05C704.554 1244.04 681.406 1128.18 704.459 1252.08C708.487 1273.74 687.136 1291.55 675.293 1272.34C664.952 1255.55 670.951 1239.86 658.144 1182.83C649.348 1143.66 650.147 1160.79 639.615 1102.83L639.624 1102.84Z" fill="white" fill-opacity="0.2"/>
<path d="M1089.91 495.653C942.83 481.977 955.785 480.748 856.244 538.033C786.703 578.059 755.966 556.137 579.026 473.357C300.341 342.967 294.758 166.153 191.787 165.334C167.25 165.142 170.237 130.686 190.172 132.455C191.562 132.577 229.601 142.122 247.749 155.502C270.967 172.621 281.69 188.433 325.061 244.514C352.091 279.459 386.562 307.526 431.947 347.961C481.083 391.736 579.591 430.384 648.376 456.455C799.424 513.705 777.577 524.714 875.902 474.071C944.306 438.839 977.709 448.218 1073.12 453.396C1131.21 456.551 1159.22 436.373 1226.99 409.238C1270.43 391.84 1307.4 401.515 1348.25 357.14C1373.93 329.238 1430.73 264.893 1442.4 228.755C1460.59 172.429 1409.94 120.218 1323.41 139.49C1183.92 170.546 1255.82 148.433 1062.17 166.58C1004.69 171.967 949.924 191.379 891.696 199.642C847.596 205.892 821.374 181.703 761.175 184.406C580.32 192.503 582.169 180.335 463.622 130.215C454.314 126.275 442.462 122.85 443.99 111.231C445.362 100.762 458.499 92.7694 474.198 99.5769C487.682 105.426 523.022 130.939 589.802 145.399C659.464 160.479 713.437 154.735 781.372 150.56C837.324 147.117 851.911 163.338 896.637 164.192C961.368 165.43 1010.27 126.999 1162.77 129.762C1263.09 131.584 1284.23 97.3804 1358.37 103.177C1483.64 112.965 1520.36 196.609 1447.77 295.863C1321.92 467.935 1321.6 406.057 1210.07 459.881C1162.13 483.014 1140.96 494.773 1089.92 495.671L1089.91 495.653Z" fill="white" fill-opacity="0.2"/>
<path d="M1742.1 508.318C1538.18 698.546 1459.66 741.24 1470.55 811.791C1473.67 832.022 1495.67 830.566 1515.6 827.184C1598.82 813.055 1728.33 684.034 1809.69 638.289C1863.01 608.305 1863.07 585.651 1968.52 513.653C1983.15 503.664 2035.58 476.233 2052.49 481.437C2078.36 489.395 2077.72 539.009 2041.83 539.758C1992.69 540.778 1948.68 580.395 1909.18 615.217C1832.99 682.386 1839.42 662.661 1679.13 777.91C1615.44 823.698 1579.93 850.675 1527.44 860.987C1490.11 868.317 1472.92 851.006 1450.05 869.45C1419.55 894.048 1388.36 917.844 1361.56 946.757C1239.91 1078 1261.69 1060.49 1154.03 1064.86C1145.34 1065.2 1131.62 1069.51 1120.14 1065.85C1105 1061.02 1105.91 1033.37 1137.1 1030.75C1235.32 1022.51 1233.1 1028.73 1274.71 985.388C1344.66 912.544 1362.04 889.69 1412.48 853.028C1424.24 844.478 1433.06 837.6 1430.84 824.569C1419.42 757.496 1458.9 714.811 1552.45 624.979C1843.19 345.852 1840.3 352.459 1845.2 346.872C1860.59 329.343 1857.07 310.594 1845.52 290.093C1816.62 238.805 1821.53 186.942 1801.81 131.235C1771.85 46.633 1716.59 48.8383 1694.8 34.4126C1680.99 25.2603 1684.17 10.0936 1700.25 5.59592C1711.32 2.50157 1718.26 3.68701 1777.37 29.5924C1852.34 62.4534 1836.1 171.235 1883.16 250.991C1947.16 359.458 1919.41 342.88 1742.08 508.309L1742.1 508.318Z" fill="white" fill-opacity="0.2"/>
<path d="M110.151 368.497C117.236 391.143 131.728 408.959 146.02 426.924C174.856 463.184 189.894 493.64 259.227 632.58C291.258 696.768 332.623 684.853 468.91 829.346C480.658 841.802 479.095 861.597 463.118 867.698C433.813 878.89 447.107 834.035 322.881 742.068C297.006 722.918 266.555 712.868 235.228 657.056C163.55 529.316 158.879 489.839 111.757 435.719C99.4188 421.546 75.2891 382.618 73.5525 378.382C63.3067 353.427 103.665 347.804 110.142 368.497H110.151Z" fill="white" fill-opacity="0.2"/>
</g>
<defs>
<clipPath id="clip0_2435_102">
<rect width="2995" height="1431" fill="white"/>
</clipPath>
</defs>
</svg>
